<svg width="1480" height="713" viewBox="0 0 1480 713" fill="none" xmlns="http://www.w3.org/2000/svg">
<path d="M86.6697 94.8842C58.2926 55.1733 86.6787 0 135.487 0H1480V705H697.58C587.801 705 484.776 651.995 420.95 562.677L86.6697 94.8842Z" fill="#F9F8FF"/>
<path d="M68.2908 95.0172C39.7618 55.3231 68.1296 0 117.012 0H1480V710H684.632C575.18 710 472.421 657.309 408.543 568.431L68.2908 95.0172Z" fill="url(#paint0_linear_3731_1922)"/>
<mask id="mask0_3731_1922" style="mask-type:alpha" maskUnits="userSpaceOnUse" x="75" y="0" width="1405" height="705">
<path d="M86.7957 94.8821C58.4211 55.171 86.8074 0 135.614 0H1480V705H697.676C587.892 705 484.864 651.99 421.039 562.665L86.7957 94.8821Z" fill="#F9F8FF"/>
</mask>
<g mask="url(#mask0_3731_1922)">
<ellipse cx="356.64" cy="362.801" rx="356.64" ry="362.801" transform="matrix(0.923374 -0.383901 0.368475 0.929638 406.475 -95.7185)" fill="url(#paint1_linear_3731_1922)" fill-opacity="0.44" style="mix-blend-mode:multiply"/>
<ellipse cx="326.644" cy="296.114" rx="326.644" ry="296.114" transform="matrix(0.249479 -0.96838 0.960902 0.276891 854.381 1053.72)" fill="url(#paint2_linear_3731_1922)" fill-opacity="0.42" style="mix-blend-mode:multiply"/>
</g>
<defs>
<linearGradient id="paint0_linear_3731_1922" x1="311.681" y1="-3.5229e-05" x2="1447.5" y2="758.663" gradientUnits="userSpaceOnUse">
<stop stop-color="#0B759D"/>
<stop offset="0.505" stop-color="#26BDBC"/>
<stop offset="1" stop-color="#9BED8C"/>
</linearGradient>
<linearGradient id="paint1_linear_3731_1922" x1="356.64" y1="0" x2="356.64" y2="725.601" gradientUnits="userSpaceOnUse">
<stop stop-color="#684FFF"/>
<stop offset="1" stop-color="#FFF8F0" stop-opacity="0"/>
</linearGradient>
<linearGradient id="paint2_linear_3731_1922" x1="326.644" y1="0" x2="326.644" y2="592.229" gradientUnits="userSpaceOnUse">
<stop stop-color="#684FFF"/>
<stop offset="1" stop-color="#FFF8F0" stop-opacity="0"/>
</linearGradient>
</defs>
</svg>
