<svg width="1504" height="1045" viewBox="0 0 1504 1045" fill="none" xmlns="http://www.w3.org/2000/svg">
<path d="M876.168 282.5C876.168 518.298 680.155 709.471 438.334 709.471C196.513 709.471 0.5 518.298 0.5 282.5C0.5 46.7021 196.513 -144.471 438.334 -144.471C680.155 -144.471 876.168 46.7021 876.168 282.5Z" stroke="#E3E3E3"/>
<path d="M1503.5 551.444C1503.5 823.74 1277.15 1044.5 997.901 1044.5C718.655 1044.5 492.303 823.74 492.303 551.444C492.303 279.148 718.655 58.3873 997.901 58.3873C1277.15 58.3873 1503.5 279.148 1503.5 551.444Z" stroke="#E3E3E3"/>
<path d="M1350.88 551.443C1350.88 741.536 1192.86 895.658 997.902 895.658C802.947 895.658 644.927 741.536 644.927 551.443C644.927 361.35 802.947 207.227 997.902 207.227C1192.86 207.227 1350.88 361.35 1350.88 551.443Z" stroke="#E3E3E3"/>
</svg>
