<svg width="1920" height="856" viewBox="0 0 1920 856" fill="none" xmlns="http://www.w3.org/2000/svg">
<path d="M0 0H1920V856H0V0Z" fill="#0FAF62"/>
<mask id="mask0_4087_801" style="mask-type:alpha" maskUnits="userSpaceOnUse" x="0" y="0" width="1917" height="856">
<path d="M0 0H1917V856H0V0Z" fill="white"/>
</mask>
<g mask="url(#mask0_4087_801)">
<path d="M452.79 -114.115C452.79 222.753 132.135 495.97 -263.588 495.97C-659.311 495.97 -979.966 222.753 -979.966 -114.115C-979.966 -450.984 -659.311 -724.201 -263.588 -724.201C132.135 -724.201 452.79 -450.984 452.79 -114.115Z" stroke="white"/>
<path d="M3070.69 763.808C3070.69 1152.81 2700.42 1468.29 2243.49 1468.29C1786.56 1468.29 1416.28 1152.81 1416.28 763.808C1416.28 374.807 1786.56 59.3286 2243.49 59.3286C2700.42 59.3286 3070.69 374.807 3070.69 763.808Z" stroke="white"/>
<path d="M2821.08 763.808C2821.08 1035.39 2562.56 1255.69 2243.49 1255.69C1924.41 1255.69 1665.89 1035.39 1665.89 763.808C1665.89 492.222 1924.41 271.927 2243.49 271.927C2562.56 271.927 2821.08 492.222 2821.08 763.808Z" stroke="white"/>
</g>
</svg>
