<svg viewBox="0 0 20 20" style="width: 20px; height: 20px; display: inline-block; user-select: none; fill: currentcolor;"><path d="M0 20V0v20zM20 0v20V0zm-7.204 6.143C11.889 5.734 10.953 5.5 10 5.5c-2.632 0-5.165 1.59-7.204 4.5.924 1.319 1.953 2.35 3.044 3.1l1.583-1.584c-.676-1.15-.532-2.65.456-3.637C8.464 7.293 9.232 7 10 7c.526 0 1.048.148 1.516.423l1.28-1.28zm4.381-2.259l-4.6 4.6c.676 1.15.532 2.65-.456 3.637-.585.586-1.353.879-2.121.879-.526 0-1.048-.148-1.516-.423l-4.6 4.6c-.195.195-.512.195-.707 0l-.354-.354c-.195-.195-.195-.512 0-.707l1.943-1.942c-1.221-.882-2.373-2.082-3.405-3.616-.223-.332-.224-.784-.001-1.116C3.796 5.814 6.898 4 10 4c1.327 0 2.651.346 3.924 1.016l2.192-2.193c.195-.195.512-.195.707 0l.354.354c.195.195.195.512 0 .707zm-6.116 5.055c-.284-.283-.66-.439-1.061-.439-.401 0-.777.156-1.061.439-.585.585-.585 1.537 0 2.122l2.122-2.122zM10 16c-.817 0-1.635-.127-2.44-.378l1.244-1.245c.396.074.794.123 1.196.123 2.632 0 5.165-1.59 7.204-4.5-.584-.833-1.212-1.545-1.867-2.155l1.053-1.053c.793.742 1.551 1.617 2.251 2.653.223.331.222.78 0 1.111C16.205 14.185 13.103 16 10 16z" fill-rule="evenodd"></path></svg>