<svg viewBox="0 0 20 20" style="width: 20px; height: 20px; display: inline-block; user-select: none; fill: currentcolor;"><path d="M0 20V0v20zM20 0v20V0zM10 7c-.768 0-1.536.293-2.121.879-1.172 1.171-1.172 3.071 0 4.242.585.586 1.353.879 2.121.879s1.536-.293 2.121-.879c1.172-1.171 1.172-3.071 0-4.242C11.536 7.293 10.768 7 10 7zm-1.061 4.061c-.585-.585-.585-1.537 0-2.122.284-.283.66-.439 1.061-.439.401 0 .777.156 1.061.439l-2.122 2.122zM10 4C6.897 4 3.795 5.814 1.359 9.443c-.222.332-.222.782 0 1.114C3.795 14.186 6.897 16 10 16c3.103 0 6.205-1.814 8.641-5.443.222-.332.222-.782 0-1.114C16.205 5.814 13.103 4 10 4zm0 1.5c2.632 0 5.165 1.59 7.204 4.5-2.039 2.91-4.572 4.5-7.204 4.5-2.632 0-5.165-1.59-7.204-4.5C4.835 7.09 7.368 5.5 10 5.5z" fill-rule="evenodd"></path></svg>