<svg width="174" height="35" viewBox="0 0 174 35" fill="none" xmlns="http://www.w3.org/2000/svg">
<path d="M41.863 4.73704C37.2601 4.51949 33.1686 6.33237 30.4934 9.32363L27.0017 13.3771L27.5035 22.0682L20.1861 21.7419C18.3174 24.0443 15.0127 25.3314 11.531 24.3887C10.2277 24.026 9.05166 23.3519 8.12233 22.4349C7.19301 21.518 6.54346 20.3907 6.23962 19.1676C5.96844 18.1082 5.96051 17.0061 6.2164 15.9435C6.47229 14.8809 6.9854 13.8853 7.71739 13.0311C8.44939 12.177 9.38135 11.4863 10.4436 11.0107C11.5059 10.535 12.6711 10.2868 13.8521 10.2845C16.2323 10.2845 18.0026 11.209 19.2222 12.188C19.2222 12.188 22.2121 9.43241 23.2743 8.16339C17.0584 2.90602 5.29543 4.10252 1.53835 11.4084C-3.33995 20.8898 4.09553 30.2443 13.8521 30.2443C18.1403 30.2443 21.9761 28.4858 24.5136 25.6577L25.3594 24.6425C25.3594 24.6425 27.5035 22.0501 27.5035 22.0682C27.5035 22.0682 27.5035 22.0682 27.0017 13.3771L34.8406 13.2032C36.552 11.064 39.5026 9.84937 42.7482 10.4295C45.6201 10.9552 48.0003 13.0219 48.7084 15.6506C50.0067 20.4185 46.1119 24.715 41.1352 24.715C38.7944 24.715 37.0241 23.7904 35.8045 22.7934C35.8045 22.7934 32.0994 26.6449 31.8507 26.9449C33.6801 28.4496 36.8077 30.2806 41.1352 30.2806C49.3969 30.2806 55.9865 23.591 54.8653 15.7775C53.9998 9.75873 48.4133 5.04523 41.863 4.73704Z" fill="#4681A9"/>
<line x1="12.7168" y1="17.127" x2="41.9255" y2="17.127" stroke="#B2F64C" stroke-width="2.5"/>
<ellipse cx="13.5479" cy="17.1437" rx="3" ry="2.76664" fill="#B2F64C"/>
<path d="M44.3066 17.377C44.3066 19.0339 42.9635 20.377 41.3066 20.377C39.6498 20.377 38.3066 19.0339 38.3066 17.377C38.3066 15.7202 39.6498 14.377 41.3066 14.377C42.9635 14.377 44.3066 15.7202 44.3066 17.377Z" fill="#B2F64C"/>
<path d="M72.8408 22.8477C72.8408 22.1445 72.4746 21.5879 71.7715 21.1631C71.0684 20.7236 70.2041 20.3721 69.1787 20.0791C68.1533 19.7861 67.1426 19.4492 66.1318 19.0684C65.1211 18.6729 64.2568 18.0283 63.5391 17.1348C62.8359 16.2266 62.4697 15.0986 62.4697 13.7217C62.4697 12.0225 63.1582 10.5723 64.5205 9.37109C65.8828 8.16992 67.6553 7.56934 69.8232 7.56934C70.6875 7.56934 71.5225 7.65723 72.3135 7.8623C73.1191 8.06738 73.7783 8.30176 74.291 8.56543C74.8037 8.8291 75.2578 9.10742 75.6387 9.38574C76.0195 9.66406 76.2979 9.91309 76.459 10.1182L76.7227 10.4111L74.0273 13.2676C73.9102 13.1211 73.749 12.96 73.5439 12.7549C73.3389 12.5498 72.8848 12.2861 72.2109 11.9492C71.5371 11.627 70.8486 11.4512 70.1309 11.4512C69.2812 11.4512 68.5928 11.6709 68.0654 12.1104C67.5381 12.5498 67.2744 13.0918 67.2744 13.707C67.2744 14.4102 67.6406 14.9814 68.3438 15.4062C69.0469 15.8311 69.9111 16.1826 70.9219 16.4756C71.9326 16.7686 72.9434 17.1201 73.9688 17.501C74.9941 17.8965 75.8584 18.541 76.5615 19.4346C77.2793 20.3428 77.6309 21.4707 77.6309 22.8477C77.6309 24.7959 76.9277 26.3779 75.5215 27.6084C74.1152 28.8389 72.167 29.4541 69.6768 29.4541C68.71 29.4541 67.7578 29.3369 66.8496 29.1025C65.9414 28.8682 65.1797 28.5752 64.5938 28.2383C64.0078 27.916 63.4805 27.5791 63.041 27.2275C62.5869 26.8906 62.2646 26.5977 62.0742 26.3633L61.7373 25.9971L64.4473 23.3018C64.5791 23.4629 64.7695 23.668 65.0186 23.917C65.2676 24.166 65.8242 24.5029 66.6885 24.9131C67.5381 25.3379 68.4463 25.543 69.3838 25.543C70.4678 25.543 71.3027 25.2939 71.918 24.7812C72.5332 24.2832 72.8408 23.6387 72.8408 22.8477ZM91.8838 7.55469C92.9824 7.55469 94.0371 7.70117 95.0332 7.99414C96.0293 8.28711 96.835 8.62402 97.4795 9.03418C98.124 9.44434 98.6807 9.85449 99.1787 10.2646C99.6768 10.6748 100.028 11.0264 100.248 11.3047L100.585 11.7441L97.7285 14.6006C97.6699 14.5273 97.582 14.4248 97.4795 14.2783C97.377 14.1318 97.1426 13.8975 96.791 13.5459C96.4395 13.209 96.0439 12.916 95.6338 12.6523C95.209 12.3887 94.6523 12.1543 93.9785 11.9346C93.29 11.7148 92.5869 11.5977 91.8838 11.5977C89.9209 11.5977 88.2803 12.2568 86.9619 13.5752C85.6436 14.8936 84.9844 16.5342 84.9844 18.4971C84.9844 20.46 85.6436 22.1006 86.9619 23.4189C88.2803 24.7373 89.9209 25.3965 91.8838 25.3965C92.6455 25.3965 93.3633 25.2939 94.0664 25.0889C94.7695 24.8838 95.3408 24.6348 95.8096 24.3418C96.2637 24.0488 96.6738 23.7559 97.0254 23.4629C97.377 23.1699 97.626 22.9209 97.7871 22.7012L98.0215 22.3936L100.731 25.25C100.644 25.3672 100.526 25.5283 100.365 25.7188C100.204 25.9092 99.8525 26.2461 99.2959 26.7295C98.7393 27.2129 98.1533 27.6377 97.5234 28.0039C96.8936 28.3701 96.0732 28.707 95.0479 29C94.0225 29.3076 92.9678 29.4541 91.8838 29.4541C88.6758 29.4541 85.9658 28.3848 83.7686 26.2461C81.5713 24.1074 80.4727 21.5146 80.4727 18.4971C80.4727 15.4795 81.5713 12.9014 83.7686 10.7627C85.9658 8.62402 88.6758 7.55469 91.8838 7.55469ZM115.131 20.1523L112.582 13.2529L110.019 20.1523H115.131ZM116.625 24.0488H108.524L106.723 29H101.918L110.18 7.99414H114.97L123.231 29H118.427L116.625 24.0488ZM140.487 7.99414H144.984V29H141.088L130.746 15.6553V29H126.234V7.99414H130.146L140.487 21.3535V7.99414ZM153.832 18.5117C153.832 20.4453 154.477 22.0859 155.795 23.4043C157.099 24.7373 158.695 25.3965 160.57 25.3965C162.445 25.3965 164.042 24.7373 165.346 23.4043C166.664 22.0859 167.309 20.4453 167.309 18.5117C167.309 16.5781 166.664 14.9375 165.346 13.6045C164.042 12.2715 162.445 11.5977 160.57 11.5977C158.695 11.5977 157.099 12.2715 155.795 13.6045C154.477 14.9375 153.832 16.5781 153.832 18.5117ZM149.174 18.4971C149.174 15.4795 150.272 12.9014 152.47 10.7627C154.667 8.62402 157.377 7.55469 160.57 7.55469C163.764 7.55469 166.474 8.62402 168.671 10.7627C170.868 12.9014 171.967 15.4795 171.967 18.4971C171.967 21.5146 170.868 24.1074 168.671 26.2461C166.474 28.3848 163.764 29.4541 160.57 29.4541C157.377 29.4541 154.667 28.3848 152.47 26.2461C150.272 24.1074 149.174 21.5146 149.174 18.4971Z" fill="#4681A9"/>
</svg>
