<svg width="128" height="128" viewBox="0 0 128 128" fill="none" xmlns="http://www.w3.org/2000/svg">
<path fill-rule="evenodd" clip-rule="evenodd" d="M81.4545 16C81.4545 24.8366 73.6399 32 64 32C54.3601 32 46.5455 24.8366 46.5455 16C46.5455 7.16344 54.3601 0 64 0C73.6399 0 81.4545 7.16344 81.4545 16Z" fill="#0FAF62"/>
<path d="M0 16V26.6667H8.72727L24.4364 45.8667C25.5352 47.2096 27.2596 48 29.0909 48H46.5455V128H58.1818V85.3333H69.8182V128H81.4545V48H98.9091C100.74 48 102.465 47.2096 103.564 45.8667L119.273 26.6667H128V16H116.364C114.532 16 112.808 16.7904 111.709 18.1333L96 37.3333H32L16.2909 18.1333C15.1921 16.7904 13.4677 16 11.6364 16H0Z" fill="#0FAF62"/>
</svg>
