<svg width="1920" height="1316" viewBox="0 0 1920 1316" fill="none" xmlns="http://www.w3.org/2000/svg">
<path d="M0 0H1920V1316H0V0Z" fill="#0FAF62"/>
<mask id="mask0_4208_717" style="mask-type:alpha" maskUnits="userSpaceOnUse" x="0" y="0" width="1917" height="1316">
<path d="M0 0H1917V1316H0V0Z" fill="white"/>
</mask>
<g mask="url(#mask0_4208_717)">
<path d="M452.792 -175.439C452.792 83.6768 372.583 318.244 242.925 488.021C113.269 657.798 -65.815 762.765 -263.587 762.765C-461.358 762.765 -640.442 657.798 -770.099 488.021C-899.756 318.244 -979.965 83.6768 -979.965 -175.439C-979.965 -434.555 -899.756 -669.123 -770.099 -838.9C-640.442 -1008.68 -461.358 -1113.64 -263.587 -1113.64C-65.815 -1113.64 113.269 -1008.68 242.925 -838.9C372.583 -669.123 452.792 -434.555 452.792 -175.439Z" stroke="white"/>
<path d="M3070.69 1174.27C3070.69 1473.46 2978.08 1744.3 2828.37 1940.34C2678.66 2136.38 2471.87 2257.59 2243.49 2257.59C2015.11 2257.59 1808.32 2136.38 1658.61 1940.34C1508.9 1744.3 1416.29 1473.46 1416.29 1174.27C1416.29 875.076 1508.9 604.229 1658.61 408.19C1808.32 212.152 2015.11 90.9421 2243.49 90.9421C2471.87 90.9421 2678.66 212.152 2828.37 408.19C2978.08 604.229 3070.69 875.076 3070.69 1174.27Z" stroke="white"/>
<path d="M2821.09 1174.26C2821.09 1383.2 2756.41 1572.33 2651.87 1709.22C2547.33 1846.12 2402.94 1930.74 2243.49 1930.74C2084.04 1930.74 1939.66 1846.12 1835.11 1709.22C1730.57 1572.33 1665.9 1383.2 1665.9 1174.26C1665.9 965.331 1730.57 776.196 1835.11 639.305C1939.66 502.414 2084.04 417.788 2243.49 417.788C2402.94 417.788 2547.33 502.414 2651.87 639.305C2756.41 776.196 2821.09 965.331 2821.09 1174.26Z" stroke="white"/>
</g>
</svg>
