<svg width="324" height="253" viewBox="0 0 324 253" fill="none" xmlns="http://www.w3.org/2000/svg">
<rect x="34.8984" y="45.272" width="257.501" height="174.285" stroke="#C6C6C6" stroke-width="2" stroke-linejoin="round" stroke-dasharray="3 3"/>
<rect width="268.26" height="202.564" fill="#F1F1F1"/>
<rect x="6.57031" y="29.563" width="255.121" height="168.621" fill="white"/>
<rect x="162" y="52" width="83" height="6" rx="3" fill="#F1F1F1"/>
<rect x="30" y="125" width="45" height="48" rx="5" transform="rotate(-90 30 125)" fill="#0FAF62"/>
<rect x="30" y="176" width="45" height="48" rx="5" transform="rotate(-90 30 176)" fill="#F1F1F1"/>
<rect x="86" y="125" width="45" height="47" rx="5" transform="rotate(-90 86 125)" fill="#F1F1F1"/>
<rect x="86" y="176" width="45" height="47" rx="5" transform="rotate(-90 86 176)" fill="#F1F1F1"/>
<rect x="141" y="125" width="45" height="47" rx="5" transform="rotate(-90 141 125)" fill="#F1F1F1"/>
<rect x="141" y="176" width="45" height="47" rx="5" transform="rotate(-90 141 176)" fill="#F1F1F1"/>
<rect x="196" y="125" width="45" height="48" rx="5" transform="rotate(-90 196 125)" fill="#F1F1F1"/>
<rect x="244.172" y="13.1392" width="16.4241" height="4.37976" rx="2.18988" fill="#C4C4C4"/>
<rect x="30" y="48" width="47.0824" height="4.37976" rx="2.18988" fill="#F1F1F1"/>
<rect x="30" y="55.6641" width="47.0824" height="4.37976" rx="2.18988" fill="#F1F1F1"/>
<rect x="30" y="63.3291" width="26.2786" height="4.37976" rx="2.18988" fill="#F1F1F1"/>
<circle cx="9.30766" cy="14.7813" r="2.73735" fill="#C4C4C4"/>
<circle cx="16.9717" cy="14.7813" r="2.73735" fill="#C4C4C4"/>
<circle cx="24.6358" cy="14.7813" r="2.73735" fill="#C4C4C4"/>
<rect x="217" y="130" width="48" height="6" rx="3" fill="#F1F1F1"/>
<rect x="217" y="139" width="25" height="6" rx="3" fill="#F1F1F1"/>
<rect x="287" y="207" width="25" height="6" rx="3" fill="#F1F1F1"/>
<rect x="306" y="132" width="6" height="6" rx="3" fill="#F1F1F1"/>
<path d="M276.978 156.311C264.521 156.311 252.564 161.406 243.763 170.467C234.953 179.531 230.002 191.823 230 204.641C230 217.454 234.955 229.756 243.763 238.816C252.564 247.876 264.521 252.971 276.978 252.971C289.434 252.971 301.391 247.876 310.192 238.816C319 229.756 323.955 217.454 323.955 204.641C323.955 191.829 319 179.527 310.192 170.467C301.391 161.406 289.434 156.311 276.978 156.311Z" fill="url(#paint0_linear_4207_716)"/>
<path d="M251.266 204.131C264.963 197.993 274.094 193.946 278.66 191.991C291.711 186.408 294.42 185.438 296.189 185.406C296.578 185.399 297.444 185.498 298.009 185.968C298.479 186.365 298.611 186.901 298.677 187.277C298.736 187.653 298.816 188.51 298.75 189.179C298.046 196.822 294.985 215.367 293.429 223.927C292.775 227.548 291.476 228.763 290.221 228.881C287.49 229.139 285.42 227.026 282.778 225.245C278.645 222.456 276.311 220.721 272.296 218C267.657 214.856 270.667 213.127 273.309 210.303C273.999 209.563 286.022 198.315 286.25 197.295C286.279 197.168 286.309 196.692 286.03 196.441C285.758 196.19 285.354 196.276 285.061 196.344C284.642 196.44 278.043 200.932 265.242 209.818C263.37 211.142 261.675 211.788 260.148 211.754C258.474 211.717 255.245 210.778 252.844 209.976C249.908 208.993 247.567 208.472 247.772 206.801C247.875 205.931 249.042 205.041 251.266 204.131Z" fill="white"/>
<defs>
<linearGradient id="paint0_linear_4207_716" x1="4927.75" y1="156.311" x2="4927.75" y2="9822.32" gradientUnits="userSpaceOnUse">
<stop stop-color="#2AABEE"/>
<stop offset="1" stop-color="#229ED9"/>
</linearGradient>
</defs>
</svg>
