<svg width="602" height="316" viewBox="0 0 602 316" fill="none" xmlns="http://www.w3.org/2000/svg">
<rect width="602" height="301" fill="#EFFDF4"/>
<rect x="168.147" y="66.2319" width="287.06" height="199.95" stroke="#C6C6C6" stroke-width="2" stroke-linejoin="round" stroke-dasharray="3 3"/>
<rect x="101" y="16" width="298.925" height="214.186" fill="#0FAF62"/>
<rect x="108.32" y="47.2598" width="284.284" height="178.295" fill="white"/>
<rect x="131.501" y="70.415" width="235.48" height="129.669" rx="8" fill="#62D68C"/>
<rect x="373.083" y="29.8926" width="18.3016" height="4.63105" rx="2.31553" fill="white"/>
<rect x="149.146" y="111.449" width="87.8826" height="5.02363" rx="2.51182" fill="white"/>
<rect x="149.146" y="161.685" width="87.8826" height="5.02363" rx="2.51182" fill="white"/>
<rect x="255.026" y="111.449" width="87.8826" height="5.02363" rx="2.51182" fill="#0FAF62"/>
<rect x="149.146" y="103.412" width="87.8826" height="5.02363" rx="2.51182" fill="white"/>
<rect x="149.146" y="153.648" width="87.8826" height="5.02363" rx="2.51182" fill="#005CE8"/>
<rect x="255.026" y="103.412" width="87.8826" height="5.02363" rx="2.51182" fill="white"/>
<rect x="149.146" y="119.487" width="87.8826" height="5.02363" rx="2.51182" fill="white"/>
<rect x="149.146" y="169.723" width="87.8826" height="5.02363" rx="2.51182" fill="#005CE8"/>
<rect x="255.026" y="119.487" width="87.8826" height="5.02363" rx="2.51182" fill="white"/>
<rect x="149.146" y="127.525" width="49.7648" height="5.02363" rx="2.51182" fill="#0FAF62"/>
<rect x="149.146" y="177.76" width="49.7648" height="5.02363" rx="2.51182" fill="white"/>
<rect x="255.026" y="127.525" width="49.7648" height="5.02363" rx="2.51182" fill="white"/>
<ellipse cx="111.371" cy="31.6293" rx="3.05026" ry="2.89441" fill="white"/>
<ellipse cx="119.912" cy="31.6293" rx="3.05026" ry="2.89441" fill="white"/>
<ellipse cx="128.451" cy="31.6293" rx="3.05026" ry="2.89441" fill="white"/>
<g filter="url(#filter0_d_3813_218)">
<rect x="279.383" y="142.595" width="221.617" height="142.405" rx="15" fill="white"/>
</g>
<line x1="325.747" y1="214.445" x2="458.324" y2="214.445" stroke="#F1F1F1"/>
<line x1="323.854" y1="238.748" x2="456.431" y2="238.748" stroke="#F1F1F1"/>
<line x1="323.854" y1="202.295" x2="456.431" y2="202.295" stroke="#F1F1F1"/>
<line x1="323.854" y1="226.597" x2="456.431" y2="226.597" stroke="#F1F1F1"/>
<line x1="323.854" y1="190.143" x2="456.431" y2="190.143" stroke="#F1F1F1"/>
<line x1="333.823" y1="178.491" x2="333.823" y2="246.082" stroke="#F1F1F1"/>
<line x1="379.279" y1="178.491" x2="379.279" y2="246.082" stroke="#F1F1F1"/>
<line x1="424.733" y1="178.491" x2="424.733" y2="246.082" stroke="#F1F1F1"/>
<line x1="348.976" y1="177.732" x2="348.976" y2="245.323" stroke="#F1F1F1"/>
<line x1="394.43" y1="177.732" x2="394.43" y2="245.323" stroke="#F1F1F1"/>
<line x1="439.886" y1="177.732" x2="439.886" y2="245.323" stroke="#F1F1F1"/>
<line x1="364.128" y1="177.732" x2="364.128" y2="245.323" stroke="#F1F1F1"/>
<line x1="409.581" y1="177.732" x2="409.581" y2="245.323" stroke="#F1F1F1"/>
<line x1="455.038" y1="177.732" x2="455.038" y2="245.323" stroke="#F1F1F1"/>
<rect x="306.914" y="179.771" width="6.35296" height="3.01418" rx="1.5" fill="#0FAF62"/>
<rect x="307.976" y="240.054" width="6.35296" height="3.01418" rx="1.5" fill="#0FAF62"/>
<rect x="306.914" y="209.913" width="6.35296" height="3.01418" rx="1.5" fill="#0FAF62"/>
<rect x="320.678" y="264.167" width="6.02836" height="3.17648" rx="1.5" transform="rotate(-90 320.678 264.167)" fill="#0FAF62"/>
<rect x="352.443" y="264.167" width="6.02836" height="3.17648" rx="1.5" transform="rotate(-90 352.443 264.167)" fill="#0FAF62"/>
<rect x="384.209" y="264.167" width="6.02836" height="3.17648" rx="1.5" transform="rotate(-90 384.209 264.167)" fill="#0FAF62"/>
<rect x="415.973" y="264.167" width="6.02836" height="3.17648" rx="1.5" transform="rotate(-90 415.973 264.167)" fill="#0FAF62"/>
<rect x="447.738" y="264.167" width="6.02836" height="3.17648" rx="1.5" transform="rotate(-90 447.738 264.167)" fill="#0FAF62"/>
<rect x="306.914" y="194.841" width="6.35296" height="3.01418" rx="1.5" fill="#0FAF62"/>
<rect x="307.976" y="255.125" width="6.35296" height="3.01418" rx="1.5" fill="#0FAF62"/>
<rect x="306.914" y="224.982" width="6.35296" height="3.01418" rx="1.5" fill="#0FAF62"/>
<rect x="336.56" y="264.167" width="6.02836" height="3.17648" rx="1.5" transform="rotate(-90 336.56 264.167)" fill="#0FAF62"/>
<rect x="368.324" y="264.167" width="6.02836" height="3.17648" rx="1.5" transform="rotate(-90 368.324 264.167)" fill="#0FAF62"/>
<rect x="400.09" y="264.167" width="6.02836" height="3.17648" rx="1.5" transform="rotate(-90 400.09 264.167)" fill="#0FAF62"/>
<rect x="431.855" y="264.167" width="6.02836" height="3.17648" rx="1.5" transform="rotate(-90 431.855 264.167)" fill="#0FAF62"/>
<rect x="463.622" y="264.167" width="6.02836" height="3.17648" rx="1.5" transform="rotate(-90 463.622 264.167)" fill="#0FAF62"/>
<path d="M394.635 221.467C356.872 208.606 332.055 234.07 323.546 249.672C323.19 250.325 323.672 251.106 324.415 251.106H458.385C458.937 251.106 459.385 250.658 459.385 250.106V180.987C459.385 179.805 457.41 179.511 457.019 180.626C449.227 202.828 429.227 233.247 394.635 221.467Z" fill="#005CE8"/>
<path d="M312.207 171.732V261.153H470.502" stroke="#0FAF62" stroke-width="3"/>
<defs>
<filter id="filter0_d_3813_218" x="263.383" y="131.595" width="263.617" height="184.405" filterUnits="userSpaceOnUse" color-interpolation-filters="sRGB">
<feFlood flood-opacity="0" result="BackgroundImageFix"/>
<feColorMatrix in="SourceAlpha" type="matrix" values="0 0 0 0 0 0 0 0 0 0 0 0 0 0 0 0 0 0 127 0" result="hardAlpha"/>
<feOffset dx="5" dy="10"/>
<feGaussianBlur stdDeviation="10.5"/>
<feComposite in2="hardAlpha" operator="out"/>
<feColorMatrix type="matrix" values="0 0 0 0 0.700272 0 0 0 0 0.700272 0 0 0 0 0.700272 0 0 0 0.25 0"/>
<feBlend mode="normal" in2="BackgroundImageFix" result="effect1_dropShadow_3813_218"/>
<feBlend mode="normal" in="SourceGraphic" in2="effect1_dropShadow_3813_218" result="shape"/>
</filter>
</defs>
</svg>
