<svg width="602" height="315" viewBox="0 0 602 315" fill="none" xmlns="http://www.w3.org/2000/svg">
<rect width="602" height="300" fill="#EFFDF4"/>
<rect x="92.7412" y="70.8389" width="314.894" height="190.626" stroke="#E0DBFF" stroke-width="2" stroke-linejoin="round" stroke-dasharray="3 3"/>
<rect x="139.878" y="16" width="327.591" height="221.34" fill="#0FAF62"/>
<rect x="147.9" y="48.3042" width="311.546" height="184.25" fill="white"/>
<rect x="173.304" y="72.2324" width="258.062" height="134" rx="8" fill="#0FAF62"/>
<rect x="438.053" y="30.3569" width="20.0566" height="4.78573" rx="2.39286" fill="white"/>
<rect x="290.971" y="158.375" width="57.4956" height="4.78573" rx="2.39286" fill="white"/>
<rect x="188.015" y="94.9639" width="57.4956" height="4.78573" rx="2.39286" fill="white"/>
<rect x="360.501" y="158.375" width="57.4956" height="4.78573" rx="2.39286" fill="white"/>
<rect x="290.971" y="166.75" width="57.4956" height="4.78573" rx="2.39286" fill="white"/>
<rect x="188.015" y="103.339" width="57.4956" height="4.78573" rx="2.39286" fill="white"/>
<rect x="360.501" y="166.75" width="57.4956" height="4.78573" rx="2.39286" fill="white"/>
<rect x="290.971" y="175.125" width="32.0906" height="4.78573" rx="2.39286" fill="white"/>
<rect x="188.015" y="111.715" width="32.0906" height="4.78573" rx="2.39286" fill="white"/>
<rect x="360.501" y="175.125" width="32.0906" height="4.78573" rx="2.39286" fill="white"/>
<ellipse cx="151.243" cy="32.1512" rx="3.34277" ry="2.99108" fill="white"/>
<ellipse cx="160.603" cy="32.1512" rx="3.34277" ry="2.99108" fill="white"/>
<ellipse cx="169.962" cy="32.1512" rx="3.34277" ry="2.99108" fill="white"/>
<g filter="url(#filter0_d_3828_5049)">
<rect x="65" y="136.839" width="204.577" height="147.161" rx="15" fill="#62D68C"/>
</g>
<rect x="86.3926" y="170.339" width="159.116" height="21.5358" rx="4" fill="white"/>
<rect x="86.3926" y="215.803" width="159.116" height="21.5358" rx="4" fill="white"/>
<rect x="86.3926" y="249.303" width="50.8101" height="21.5358" rx="4" fill="#0FAF62"/>
<path d="M104.839 261.285C104.715 261.285 104.619 261.251 104.551 261.183C104.483 261.111 104.449 261.013 104.449 260.889V257.427C104.449 257.299 104.481 257.203 104.545 257.139C104.613 257.071 104.709 257.037 104.833 257.037C104.957 257.037 105.051 257.071 105.115 257.139C105.183 257.203 105.217 257.299 105.217 257.427V260.631H106.957C107.065 260.631 107.147 260.659 107.203 260.715C107.263 260.771 107.293 260.851 107.293 260.955C107.293 261.059 107.263 261.141 107.203 261.201C107.147 261.257 107.065 261.285 106.957 261.285H104.839ZM109.055 261.345C108.751 261.345 108.487 261.283 108.263 261.159C108.039 261.035 107.865 260.859 107.741 260.631C107.617 260.399 107.555 260.127 107.555 259.815C107.555 259.579 107.589 259.369 107.657 259.185C107.729 258.997 107.831 258.837 107.963 258.705C108.095 258.569 108.253 258.467 108.437 258.399C108.621 258.327 108.827 258.291 109.055 258.291C109.359 258.291 109.623 258.353 109.847 258.477C110.071 258.601 110.245 258.777 110.369 259.005C110.493 259.233 110.555 259.503 110.555 259.815C110.555 260.051 110.519 260.263 110.447 260.451C110.379 260.639 110.279 260.801 110.147 260.937C110.015 261.069 109.857 261.171 109.673 261.243C109.489 261.311 109.283 261.345 109.055 261.345ZM109.055 260.775C109.203 260.775 109.333 260.739 109.445 260.667C109.557 260.595 109.643 260.489 109.703 260.349C109.767 260.205 109.799 260.027 109.799 259.815C109.799 259.495 109.731 259.257 109.595 259.101C109.459 258.941 109.279 258.861 109.055 258.861C108.907 258.861 108.777 258.897 108.665 258.969C108.553 259.037 108.465 259.143 108.401 259.287C108.341 259.427 108.311 259.603 108.311 259.815C108.311 260.131 108.379 260.371 108.515 260.535C108.651 260.695 108.831 260.775 109.055 260.775ZM112.542 262.425C112.326 262.425 112.116 262.405 111.912 262.365C111.712 262.325 111.53 262.263 111.366 262.179C111.29 262.139 111.238 262.091 111.21 262.035C111.186 261.979 111.178 261.921 111.186 261.861C111.198 261.805 111.222 261.755 111.258 261.711C111.298 261.667 111.346 261.637 111.402 261.621C111.458 261.605 111.516 261.613 111.576 261.645C111.752 261.733 111.918 261.789 112.074 261.813C112.234 261.841 112.37 261.855 112.482 261.855C112.75 261.855 112.95 261.789 113.082 261.657C113.218 261.529 113.286 261.337 113.286 261.081V260.541H113.34C113.28 260.745 113.154 260.909 112.962 261.033C112.774 261.153 112.56 261.213 112.32 261.213C112.056 261.213 111.826 261.153 111.63 261.033C111.434 260.909 111.282 260.737 111.174 260.517C111.066 260.297 111.012 260.041 111.012 259.749C111.012 259.529 111.042 259.331 111.102 259.155C111.166 258.975 111.254 258.821 111.366 258.693C111.482 258.565 111.62 258.467 111.78 258.399C111.944 258.327 112.124 258.291 112.32 258.291C112.568 258.291 112.784 258.353 112.968 258.477C113.156 258.597 113.278 258.757 113.334 258.957L113.274 259.107V258.681C113.274 258.557 113.306 258.463 113.37 258.399C113.438 258.335 113.53 258.303 113.646 258.303C113.766 258.303 113.858 258.335 113.922 258.399C113.986 258.463 114.018 258.557 114.018 258.681V260.991C114.018 261.467 113.892 261.825 113.64 262.065C113.388 262.305 113.022 262.425 112.542 262.425ZM112.524 260.643C112.68 260.643 112.814 260.607 112.926 260.535C113.038 260.463 113.124 260.361 113.184 260.229C113.248 260.093 113.28 259.933 113.28 259.749C113.28 259.473 113.212 259.257 113.076 259.101C112.94 258.941 112.756 258.861 112.524 258.861C112.368 258.861 112.234 258.897 112.122 258.969C112.01 259.041 111.922 259.143 111.858 259.275C111.798 259.407 111.768 259.565 111.768 259.749C111.768 260.025 111.836 260.243 111.972 260.403C112.108 260.563 112.292 260.643 112.524 260.643ZM115.251 261.333C115.127 261.333 115.031 261.299 114.963 261.231C114.899 261.159 114.867 261.061 114.867 260.937V257.403C114.867 257.275 114.899 257.177 114.963 257.109C115.031 257.041 115.127 257.007 115.251 257.007C115.375 257.007 115.469 257.041 115.533 257.109C115.601 257.177 115.635 257.275 115.635 257.403V260.937C115.635 261.061 115.603 261.159 115.539 261.231C115.475 261.299 115.379 261.333 115.251 261.333ZM116.86 261.333C116.74 261.333 116.648 261.301 116.584 261.237C116.52 261.169 116.488 261.073 116.488 260.949V258.681C116.488 258.557 116.52 258.463 116.584 258.399C116.648 258.335 116.738 258.303 116.854 258.303C116.97 258.303 117.06 258.335 117.124 258.399C117.188 258.463 117.22 258.557 117.22 258.681V259.089L117.154 258.939C117.242 258.727 117.378 258.567 117.562 258.459C117.75 258.347 117.962 258.291 118.198 258.291C118.434 258.291 118.628 258.335 118.78 258.423C118.932 258.511 119.046 258.645 119.122 258.825C119.198 259.001 119.236 259.225 119.236 259.497V260.949C119.236 261.073 119.204 261.169 119.14 261.237C119.076 261.301 118.984 261.333 118.864 261.333C118.744 261.333 118.65 261.301 118.582 261.237C118.518 261.169 118.486 261.073 118.486 260.949V259.533C118.486 259.305 118.442 259.139 118.354 259.035C118.27 258.931 118.138 258.879 117.958 258.879C117.738 258.879 117.562 258.949 117.43 259.089C117.302 259.225 117.238 259.407 117.238 259.635V260.949C117.238 261.205 117.112 261.333 116.86 261.333Z" fill="white"/>
<path d="M99.2712 182.861C99.1845 182.814 99.1345 182.747 99.1212 182.661C99.1145 182.574 99.1412 182.481 99.2012 182.381L99.9012 181.281L100.011 181.441L98.7012 181.491C98.5812 181.491 98.4845 181.467 98.4112 181.421C98.3445 181.367 98.3112 181.291 98.3112 181.191C98.3112 181.097 98.3445 181.027 98.4112 180.981C98.4845 180.927 98.5812 180.904 98.7012 180.911L100.011 180.961L99.9012 181.111L99.2112 180.001C99.1445 179.901 99.1179 179.807 99.1312 179.721C99.1445 179.634 99.1912 179.567 99.2712 179.521C99.3512 179.474 99.4312 179.471 99.5112 179.511C99.5979 179.551 99.6679 179.624 99.7212 179.731L100.291 180.831H100.191L100.761 179.731C100.821 179.624 100.891 179.551 100.971 179.511C101.058 179.471 101.141 179.474 101.221 179.521C101.301 179.574 101.345 179.644 101.351 179.731C101.365 179.817 101.338 179.911 101.271 180.011L100.581 181.111L100.471 180.961L101.781 180.911C101.901 180.904 101.995 180.927 102.061 180.981C102.135 181.027 102.171 181.097 102.171 181.191C102.171 181.291 102.135 181.367 102.061 181.421C101.995 181.467 101.901 181.491 101.781 181.491L100.471 181.441L100.581 181.281L101.271 182.381C101.338 182.481 101.365 182.574 101.351 182.661C101.345 182.741 101.301 182.804 101.221 182.851C101.135 182.904 101.048 182.911 100.961 182.871C100.881 182.831 100.815 182.761 100.761 182.661L100.191 181.561H100.291L99.7112 182.661C99.6579 182.767 99.5912 182.841 99.5112 182.881C99.4312 182.921 99.3512 182.914 99.2712 182.861ZM107.073 182.861C106.986 182.814 106.936 182.747 106.923 182.661C106.916 182.574 106.943 182.481 107.003 182.381L107.703 181.281L107.813 181.441L106.503 181.491C106.383 181.491 106.286 181.467 106.213 181.421C106.146 181.367 106.113 181.291 106.113 181.191C106.113 181.097 106.146 181.027 106.213 180.981C106.286 180.927 106.383 180.904 106.503 180.911L107.813 180.961L107.703 181.111L107.013 180.001C106.946 179.901 106.92 179.807 106.933 179.721C106.946 179.634 106.993 179.567 107.073 179.521C107.153 179.474 107.233 179.471 107.313 179.511C107.4 179.551 107.47 179.624 107.523 179.731L108.093 180.831H107.993L108.563 179.731C108.623 179.624 108.693 179.551 108.773 179.511C108.86 179.471 108.943 179.474 109.023 179.521C109.103 179.574 109.146 179.644 109.153 179.731C109.166 179.817 109.14 179.911 109.073 180.011L108.383 181.111L108.273 180.961L109.583 180.911C109.703 180.904 109.796 180.927 109.863 180.981C109.936 181.027 109.973 181.097 109.973 181.191C109.973 181.291 109.936 181.367 109.863 181.421C109.796 181.467 109.703 181.491 109.583 181.491L108.273 181.441L108.383 181.281L109.073 182.381C109.14 182.481 109.166 182.574 109.153 182.661C109.146 182.741 109.103 182.804 109.023 182.851C108.936 182.904 108.85 182.911 108.763 182.871C108.683 182.831 108.616 182.761 108.563 182.661L107.993 181.561H108.093L107.513 182.661C107.46 182.767 107.393 182.841 107.313 182.881C107.233 182.921 107.153 182.914 107.073 182.861ZM114.875 182.861C114.788 182.814 114.738 182.747 114.725 182.661C114.718 182.574 114.745 182.481 114.805 182.381L115.505 181.281L115.615 181.441L114.305 181.491C114.185 181.491 114.088 181.467 114.015 181.421C113.948 181.367 113.915 181.291 113.915 181.191C113.915 181.097 113.948 181.027 114.015 180.981C114.088 180.927 114.185 180.904 114.305 180.911L115.615 180.961L115.505 181.111L114.815 180.001C114.748 179.901 114.722 179.807 114.735 179.721C114.748 179.634 114.795 179.567 114.875 179.521C114.955 179.474 115.035 179.471 115.115 179.511C115.202 179.551 115.272 179.624 115.325 179.731L115.895 180.831H115.795L116.365 179.731C116.425 179.624 116.495 179.551 116.575 179.511C116.662 179.471 116.745 179.474 116.825 179.521C116.905 179.574 116.948 179.644 116.955 179.731C116.968 179.817 116.942 179.911 116.875 180.011L116.185 181.111L116.075 180.961L117.385 180.911C117.505 180.904 117.598 180.927 117.665 180.981C117.738 181.027 117.775 181.097 117.775 181.191C117.775 181.291 117.738 181.367 117.665 181.421C117.598 181.467 117.505 181.491 117.385 181.491L116.075 181.441L116.185 181.281L116.875 182.381C116.942 182.481 116.968 182.574 116.955 182.661C116.948 182.741 116.905 182.804 116.825 182.851C116.738 182.904 116.652 182.911 116.565 182.871C116.485 182.831 116.418 182.761 116.365 182.661L115.795 181.561H115.895L115.315 182.661C115.262 182.767 115.195 182.841 115.115 182.881C115.035 182.921 114.955 182.914 114.875 182.861ZM122.677 182.861C122.59 182.814 122.54 182.747 122.527 182.661C122.52 182.574 122.547 182.481 122.607 182.381L123.307 181.281L123.417 181.441L122.107 181.491C121.987 181.491 121.89 181.467 121.817 181.421C121.75 181.367 121.717 181.291 121.717 181.191C121.717 181.097 121.75 181.027 121.817 180.981C121.89 180.927 121.987 180.904 122.107 180.911L123.417 180.961L123.307 181.111L122.617 180.001C122.55 179.901 122.524 179.807 122.537 179.721C122.55 179.634 122.597 179.567 122.677 179.521C122.757 179.474 122.837 179.471 122.917 179.511C123.004 179.551 123.074 179.624 123.127 179.731L123.697 180.831H123.597L124.167 179.731C124.227 179.624 124.297 179.551 124.377 179.511C124.464 179.471 124.547 179.474 124.627 179.521C124.707 179.574 124.75 179.644 124.757 179.731C124.77 179.817 124.744 179.911 124.677 180.011L123.987 181.111L123.877 180.961L125.187 180.911C125.307 180.904 125.4 180.927 125.467 180.981C125.54 181.027 125.577 181.097 125.577 181.191C125.577 181.291 125.54 181.367 125.467 181.421C125.4 181.467 125.307 181.491 125.187 181.491L123.877 181.441L123.987 181.281L124.677 182.381C124.744 182.481 124.77 182.574 124.757 182.661C124.75 182.741 124.707 182.804 124.627 182.851C124.54 182.904 124.454 182.911 124.367 182.871C124.287 182.831 124.22 182.761 124.167 182.661L123.597 181.561H123.697L123.117 182.661C123.064 182.767 122.997 182.841 122.917 182.881C122.837 182.921 122.757 182.914 122.677 182.861ZM130.479 182.861C130.392 182.814 130.342 182.747 130.329 182.661C130.322 182.574 130.349 182.481 130.409 182.381L131.109 181.281L131.219 181.441L129.909 181.491C129.789 181.491 129.692 181.467 129.619 181.421C129.552 181.367 129.519 181.291 129.519 181.191C129.519 181.097 129.552 181.027 129.619 180.981C129.692 180.927 129.789 180.904 129.909 180.911L131.219 180.961L131.109 181.111L130.419 180.001C130.352 179.901 130.326 179.807 130.339 179.721C130.352 179.634 130.399 179.567 130.479 179.521C130.559 179.474 130.639 179.471 130.719 179.511C130.806 179.551 130.876 179.624 130.929 179.731L131.499 180.831H131.399L131.969 179.731C132.029 179.624 132.099 179.551 132.179 179.511C132.266 179.471 132.349 179.474 132.429 179.521C132.509 179.574 132.552 179.644 132.559 179.731C132.572 179.817 132.546 179.911 132.479 180.011L131.789 181.111L131.679 180.961L132.989 180.911C133.109 180.904 133.202 180.927 133.269 180.981C133.342 181.027 133.379 181.097 133.379 181.191C133.379 181.291 133.342 181.367 133.269 181.421C133.202 181.467 133.109 181.491 132.989 181.491L131.679 181.441L131.789 181.281L132.479 182.381C132.546 182.481 132.572 182.574 132.559 182.661C132.552 182.741 132.509 182.804 132.429 182.851C132.342 182.904 132.256 182.911 132.169 182.871C132.089 182.831 132.022 182.761 131.969 182.661L131.399 181.561H131.499L130.919 182.661C130.866 182.767 130.799 182.841 130.719 182.881C130.639 182.921 130.559 182.914 130.479 182.861ZM138.281 182.861C138.194 182.814 138.144 182.747 138.131 182.661C138.124 182.574 138.151 182.481 138.211 182.381L138.911 181.281L139.021 181.441L137.711 181.491C137.591 181.491 137.494 181.467 137.421 181.421C137.354 181.367 137.321 181.291 137.321 181.191C137.321 181.097 137.354 181.027 137.421 180.981C137.494 180.927 137.591 180.904 137.711 180.911L139.021 180.961L138.911 181.111L138.221 180.001C138.154 179.901 138.128 179.807 138.141 179.721C138.154 179.634 138.201 179.567 138.281 179.521C138.361 179.474 138.441 179.471 138.521 179.511C138.608 179.551 138.678 179.624 138.731 179.731L139.301 180.831H139.201L139.771 179.731C139.831 179.624 139.901 179.551 139.981 179.511C140.068 179.471 140.151 179.474 140.231 179.521C140.311 179.574 140.354 179.644 140.361 179.731C140.374 179.817 140.348 179.911 140.281 180.011L139.591 181.111L139.481 180.961L140.791 180.911C140.911 180.904 141.004 180.927 141.071 180.981C141.144 181.027 141.181 181.097 141.181 181.191C141.181 181.291 141.144 181.367 141.071 181.421C141.004 181.467 140.911 181.491 140.791 181.491L139.481 181.441L139.591 181.281L140.281 182.381C140.348 182.481 140.374 182.574 140.361 182.661C140.354 182.741 140.311 182.804 140.231 182.851C140.144 182.904 140.058 182.911 139.971 182.871C139.891 182.831 139.824 182.761 139.771 182.661L139.201 181.561H139.301L138.721 182.661C138.668 182.767 138.601 182.841 138.521 182.881C138.441 182.921 138.361 182.914 138.281 182.861ZM146.083 182.861C145.996 182.814 145.946 182.747 145.933 182.661C145.926 182.574 145.953 182.481 146.013 182.381L146.713 181.281L146.823 181.441L145.513 181.491C145.393 181.491 145.296 181.467 145.223 181.421C145.156 181.367 145.123 181.291 145.123 181.191C145.123 181.097 145.156 181.027 145.223 180.981C145.296 180.927 145.393 180.904 145.513 180.911L146.823 180.961L146.713 181.111L146.023 180.001C145.956 179.901 145.93 179.807 145.943 179.721C145.956 179.634 146.003 179.567 146.083 179.521C146.163 179.474 146.243 179.471 146.323 179.511C146.41 179.551 146.48 179.624 146.533 179.731L147.103 180.831H147.003L147.573 179.731C147.633 179.624 147.703 179.551 147.783 179.511C147.87 179.471 147.953 179.474 148.033 179.521C148.113 179.574 148.156 179.644 148.163 179.731C148.176 179.817 148.15 179.911 148.083 180.011L147.393 181.111L147.283 180.961L148.593 180.911C148.713 180.904 148.806 180.927 148.873 180.981C148.946 181.027 148.983 181.097 148.983 181.191C148.983 181.291 148.946 181.367 148.873 181.421C148.806 181.467 148.713 181.491 148.593 181.491L147.283 181.441L147.393 181.281L148.083 182.381C148.15 182.481 148.176 182.574 148.163 182.661C148.156 182.741 148.113 182.804 148.033 182.851C147.946 182.904 147.86 182.911 147.773 182.871C147.693 182.831 147.626 182.761 147.573 182.661L147.003 181.561H147.103L146.523 182.661C146.47 182.767 146.403 182.841 146.323 182.881C146.243 182.921 146.163 182.914 146.083 182.861ZM153.885 182.861C153.798 182.814 153.748 182.747 153.735 182.661C153.728 182.574 153.755 182.481 153.815 182.381L154.515 181.281L154.625 181.441L153.315 181.491C153.195 181.491 153.098 181.467 153.025 181.421C152.958 181.367 152.925 181.291 152.925 181.191C152.925 181.097 152.958 181.027 153.025 180.981C153.098 180.927 153.195 180.904 153.315 180.911L154.625 180.961L154.515 181.111L153.825 180.001C153.758 179.901 153.732 179.807 153.745 179.721C153.758 179.634 153.805 179.567 153.885 179.521C153.965 179.474 154.045 179.471 154.125 179.511C154.212 179.551 154.282 179.624 154.335 179.731L154.905 180.831H154.805L155.375 179.731C155.435 179.624 155.505 179.551 155.585 179.511C155.672 179.471 155.755 179.474 155.835 179.521C155.915 179.574 155.958 179.644 155.965 179.731C155.978 179.817 155.952 179.911 155.885 180.011L155.195 181.111L155.085 180.961L156.395 180.911C156.515 180.904 156.608 180.927 156.675 180.981C156.748 181.027 156.785 181.097 156.785 181.191C156.785 181.291 156.748 181.367 156.675 181.421C156.608 181.467 156.515 181.491 156.395 181.491L155.085 181.441L155.195 181.281L155.885 182.381C155.952 182.481 155.978 182.574 155.965 182.661C155.958 182.741 155.915 182.804 155.835 182.851C155.748 182.904 155.662 182.911 155.575 182.871C155.495 182.831 155.428 182.761 155.375 182.661L154.805 181.561H154.905L154.325 182.661C154.272 182.767 154.205 182.841 154.125 182.881C154.045 182.921 153.965 182.914 153.885 182.861ZM161.687 182.861C161.6 182.814 161.55 182.747 161.537 182.661C161.53 182.574 161.557 182.481 161.617 182.381L162.317 181.281L162.427 181.441L161.117 181.491C160.997 181.491 160.9 181.467 160.827 181.421C160.76 181.367 160.727 181.291 160.727 181.191C160.727 181.097 160.76 181.027 160.827 180.981C160.9 180.927 160.997 180.904 161.117 180.911L162.427 180.961L162.317 181.111L161.627 180.001C161.56 179.901 161.534 179.807 161.547 179.721C161.56 179.634 161.607 179.567 161.687 179.521C161.767 179.474 161.847 179.471 161.927 179.511C162.014 179.551 162.084 179.624 162.137 179.731L162.707 180.831H162.607L163.177 179.731C163.237 179.624 163.307 179.551 163.387 179.511C163.474 179.471 163.557 179.474 163.637 179.521C163.717 179.574 163.76 179.644 163.767 179.731C163.78 179.817 163.754 179.911 163.687 180.011L162.997 181.111L162.887 180.961L164.197 180.911C164.317 180.904 164.41 180.927 164.477 180.981C164.55 181.027 164.587 181.097 164.587 181.191C164.587 181.291 164.55 181.367 164.477 181.421C164.41 181.467 164.317 181.491 164.197 181.491L162.887 181.441L162.997 181.281L163.687 182.381C163.754 182.481 163.78 182.574 163.767 182.661C163.76 182.741 163.717 182.804 163.637 182.851C163.55 182.904 163.464 182.911 163.377 182.871C163.297 182.831 163.23 182.761 163.177 182.661L162.607 181.561H162.707L162.127 182.661C162.074 182.767 162.007 182.841 161.927 182.881C161.847 182.921 161.767 182.914 161.687 182.861ZM169.489 182.861C169.402 182.814 169.352 182.747 169.339 182.661C169.332 182.574 169.359 182.481 169.419 182.381L170.119 181.281L170.229 181.441L168.919 181.491C168.799 181.491 168.702 181.467 168.629 181.421C168.562 181.367 168.529 181.291 168.529 181.191C168.529 181.097 168.562 181.027 168.629 180.981C168.702 180.927 168.799 180.904 168.919 180.911L170.229 180.961L170.119 181.111L169.429 180.001C169.362 179.901 169.335 179.807 169.349 179.721C169.362 179.634 169.409 179.567 169.489 179.521C169.569 179.474 169.649 179.471 169.729 179.511C169.815 179.551 169.885 179.624 169.939 179.731L170.509 180.831H170.409L170.979 179.731C171.039 179.624 171.109 179.551 171.189 179.511C171.275 179.471 171.359 179.474 171.439 179.521C171.519 179.574 171.562 179.644 171.569 179.731C171.582 179.817 171.555 179.911 171.489 180.011L170.799 181.111L170.689 180.961L171.999 180.911C172.119 180.904 172.212 180.927 172.279 180.981C172.352 181.027 172.389 181.097 172.389 181.191C172.389 181.291 172.352 181.367 172.279 181.421C172.212 181.467 172.119 181.491 171.999 181.491L170.689 181.441L170.799 181.281L171.489 182.381C171.555 182.481 171.582 182.574 171.569 182.661C171.562 182.741 171.519 182.804 171.439 182.851C171.352 182.904 171.265 182.911 171.179 182.871C171.099 182.831 171.032 182.761 170.979 182.661L170.409 181.561H170.509L169.929 182.661C169.875 182.767 169.809 182.841 169.729 182.881C169.649 182.921 169.569 182.914 169.489 182.861Z" fill="#0FAF62"/>
<path d="M99.7058 227.908C99.6191 227.861 99.5691 227.795 99.5558 227.708C99.5491 227.621 99.5758 227.528 99.6358 227.428L100.336 226.328L100.446 226.488L99.1358 226.538C99.0158 226.538 98.9191 226.515 98.8458 226.468C98.7791 226.415 98.7458 226.338 98.7458 226.238C98.7458 226.145 98.7791 226.075 98.8458 226.028C98.9191 225.975 99.0158 225.951 99.1358 225.958L100.446 226.008L100.336 226.158L99.6458 225.048C99.5791 224.948 99.5524 224.855 99.5658 224.768C99.5791 224.681 99.6258 224.615 99.7058 224.568C99.7858 224.521 99.8658 224.518 99.9458 224.558C100.032 224.598 100.102 224.671 100.156 224.778L100.726 225.878H100.626L101.196 224.778C101.256 224.671 101.326 224.598 101.406 224.558C101.492 224.518 101.576 224.521 101.656 224.568C101.736 224.621 101.779 224.691 101.786 224.778C101.799 224.865 101.772 224.958 101.706 225.058L101.016 226.158L100.906 226.008L102.216 225.958C102.336 225.951 102.429 225.975 102.496 226.028C102.569 226.075 102.606 226.145 102.606 226.238C102.606 226.338 102.569 226.415 102.496 226.468C102.429 226.515 102.336 226.538 102.216 226.538L100.906 226.488L101.016 226.328L101.706 227.428C101.772 227.528 101.799 227.621 101.786 227.708C101.779 227.788 101.736 227.851 101.656 227.898C101.569 227.951 101.482 227.958 101.396 227.918C101.316 227.878 101.249 227.808 101.196 227.708L100.626 226.608H100.726L100.146 227.708C100.092 227.815 100.026 227.888 99.9458 227.928C99.8658 227.968 99.7858 227.961 99.7058 227.908ZM107.508 227.908C107.421 227.861 107.371 227.795 107.358 227.708C107.351 227.621 107.378 227.528 107.438 227.428L108.138 226.328L108.248 226.488L106.938 226.538C106.818 226.538 106.721 226.515 106.648 226.468C106.581 226.415 106.548 226.338 106.548 226.238C106.548 226.145 106.581 226.075 106.648 226.028C106.721 225.975 106.818 225.951 106.938 225.958L108.248 226.008L108.138 226.158L107.448 225.048C107.381 224.948 107.354 224.855 107.368 224.768C107.381 224.681 107.428 224.615 107.508 224.568C107.588 224.521 107.668 224.518 107.748 224.558C107.834 224.598 107.904 224.671 107.958 224.778L108.528 225.878H108.428L108.998 224.778C109.058 224.671 109.128 224.598 109.208 224.558C109.294 224.518 109.378 224.521 109.458 224.568C109.538 224.621 109.581 224.691 109.588 224.778C109.601 224.865 109.574 224.958 109.508 225.058L108.818 226.158L108.708 226.008L110.018 225.958C110.138 225.951 110.231 225.975 110.298 226.028C110.371 226.075 110.408 226.145 110.408 226.238C110.408 226.338 110.371 226.415 110.298 226.468C110.231 226.515 110.138 226.538 110.018 226.538L108.708 226.488L108.818 226.328L109.508 227.428C109.574 227.528 109.601 227.621 109.588 227.708C109.581 227.788 109.538 227.851 109.458 227.898C109.371 227.951 109.284 227.958 109.198 227.918C109.118 227.878 109.051 227.808 108.998 227.708L108.428 226.608H108.528L107.948 227.708C107.894 227.815 107.828 227.888 107.748 227.928C107.668 227.968 107.588 227.961 107.508 227.908ZM115.31 227.908C115.223 227.861 115.173 227.795 115.16 227.708C115.153 227.621 115.18 227.528 115.24 227.428L115.94 226.328L116.05 226.488L114.74 226.538C114.62 226.538 114.523 226.515 114.45 226.468C114.383 226.415 114.35 226.338 114.35 226.238C114.35 226.145 114.383 226.075 114.45 226.028C114.523 225.975 114.62 225.951 114.74 225.958L116.05 226.008L115.94 226.158L115.25 225.048C115.183 224.948 115.156 224.855 115.17 224.768C115.183 224.681 115.23 224.615 115.31 224.568C115.39 224.521 115.47 224.518 115.55 224.558C115.636 224.598 115.706 224.671 115.76 224.778L116.33 225.878H116.23L116.8 224.778C116.86 224.671 116.93 224.598 117.01 224.558C117.096 224.518 117.18 224.521 117.26 224.568C117.34 224.621 117.383 224.691 117.39 224.778C117.403 224.865 117.376 224.958 117.31 225.058L116.62 226.158L116.51 226.008L117.82 225.958C117.94 225.951 118.033 225.975 118.1 226.028C118.173 226.075 118.21 226.145 118.21 226.238C118.21 226.338 118.173 226.415 118.1 226.468C118.033 226.515 117.94 226.538 117.82 226.538L116.51 226.488L116.62 226.328L117.31 227.428C117.376 227.528 117.403 227.621 117.39 227.708C117.383 227.788 117.34 227.851 117.26 227.898C117.173 227.951 117.086 227.958 117 227.918C116.92 227.878 116.853 227.808 116.8 227.708L116.23 226.608H116.33L115.75 227.708C115.696 227.815 115.63 227.888 115.55 227.928C115.47 227.968 115.39 227.961 115.31 227.908ZM123.112 227.908C123.025 227.861 122.975 227.795 122.962 227.708C122.955 227.621 122.982 227.528 123.042 227.428L123.742 226.328L123.852 226.488L122.542 226.538C122.422 226.538 122.325 226.515 122.252 226.468C122.185 226.415 122.152 226.338 122.152 226.238C122.152 226.145 122.185 226.075 122.252 226.028C122.325 225.975 122.422 225.951 122.542 225.958L123.852 226.008L123.742 226.158L123.052 225.048C122.985 224.948 122.958 224.855 122.972 224.768C122.985 224.681 123.032 224.615 123.112 224.568C123.192 224.521 123.272 224.518 123.352 224.558C123.438 224.598 123.508 224.671 123.562 224.778L124.132 225.878H124.032L124.602 224.778C124.662 224.671 124.732 224.598 124.812 224.558C124.898 224.518 124.982 224.521 125.062 224.568C125.142 224.621 125.185 224.691 125.192 224.778C125.205 224.865 125.178 224.958 125.112 225.058L124.422 226.158L124.312 226.008L125.622 225.958C125.742 225.951 125.835 225.975 125.902 226.028C125.975 226.075 126.012 226.145 126.012 226.238C126.012 226.338 125.975 226.415 125.902 226.468C125.835 226.515 125.742 226.538 125.622 226.538L124.312 226.488L124.422 226.328L125.112 227.428C125.178 227.528 125.205 227.621 125.192 227.708C125.185 227.788 125.142 227.851 125.062 227.898C124.975 227.951 124.888 227.958 124.802 227.918C124.722 227.878 124.655 227.808 124.602 227.708L124.032 226.608H124.132L123.552 227.708C123.498 227.815 123.432 227.888 123.352 227.928C123.272 227.968 123.192 227.961 123.112 227.908ZM130.914 227.908C130.827 227.861 130.777 227.795 130.764 227.708C130.757 227.621 130.784 227.528 130.844 227.428L131.544 226.328L131.654 226.488L130.344 226.538C130.224 226.538 130.127 226.515 130.054 226.468C129.987 226.415 129.954 226.338 129.954 226.238C129.954 226.145 129.987 226.075 130.054 226.028C130.127 225.975 130.224 225.951 130.344 225.958L131.654 226.008L131.544 226.158L130.854 225.048C130.787 224.948 130.76 224.855 130.774 224.768C130.787 224.681 130.834 224.615 130.914 224.568C130.994 224.521 131.074 224.518 131.154 224.558C131.24 224.598 131.31 224.671 131.364 224.778L131.934 225.878H131.834L132.404 224.778C132.464 224.671 132.534 224.598 132.614 224.558C132.7 224.518 132.784 224.521 132.864 224.568C132.944 224.621 132.987 224.691 132.994 224.778C133.007 224.865 132.98 224.958 132.914 225.058L132.224 226.158L132.114 226.008L133.424 225.958C133.544 225.951 133.637 225.975 133.704 226.028C133.777 226.075 133.814 226.145 133.814 226.238C133.814 226.338 133.777 226.415 133.704 226.468C133.637 226.515 133.544 226.538 133.424 226.538L132.114 226.488L132.224 226.328L132.914 227.428C132.98 227.528 133.007 227.621 132.994 227.708C132.987 227.788 132.944 227.851 132.864 227.898C132.777 227.951 132.69 227.958 132.604 227.918C132.524 227.878 132.457 227.808 132.404 227.708L131.834 226.608H131.934L131.354 227.708C131.3 227.815 131.234 227.888 131.154 227.928C131.074 227.968 130.994 227.961 130.914 227.908ZM138.716 227.908C138.629 227.861 138.579 227.795 138.566 227.708C138.559 227.621 138.586 227.528 138.646 227.428L139.346 226.328L139.456 226.488L138.146 226.538C138.026 226.538 137.929 226.515 137.856 226.468C137.789 226.415 137.756 226.338 137.756 226.238C137.756 226.145 137.789 226.075 137.856 226.028C137.929 225.975 138.026 225.951 138.146 225.958L139.456 226.008L139.346 226.158L138.656 225.048C138.589 224.948 138.562 224.855 138.576 224.768C138.589 224.681 138.636 224.615 138.716 224.568C138.796 224.521 138.876 224.518 138.956 224.558C139.042 224.598 139.112 224.671 139.166 224.778L139.736 225.878H139.636L140.206 224.778C140.266 224.671 140.336 224.598 140.416 224.558C140.502 224.518 140.586 224.521 140.666 224.568C140.746 224.621 140.789 224.691 140.796 224.778C140.809 224.865 140.782 224.958 140.716 225.058L140.026 226.158L139.916 226.008L141.226 225.958C141.346 225.951 141.439 225.975 141.506 226.028C141.579 226.075 141.616 226.145 141.616 226.238C141.616 226.338 141.579 226.415 141.506 226.468C141.439 226.515 141.346 226.538 141.226 226.538L139.916 226.488L140.026 226.328L140.716 227.428C140.782 227.528 140.809 227.621 140.796 227.708C140.789 227.788 140.746 227.851 140.666 227.898C140.579 227.951 140.492 227.958 140.406 227.918C140.326 227.878 140.259 227.808 140.206 227.708L139.636 226.608H139.736L139.156 227.708C139.102 227.815 139.036 227.888 138.956 227.928C138.876 227.968 138.796 227.961 138.716 227.908ZM146.517 227.908C146.431 227.861 146.381 227.795 146.367 227.708C146.361 227.621 146.387 227.528 146.447 227.428L147.147 226.328L147.257 226.488L145.947 226.538C145.827 226.538 145.731 226.515 145.657 226.468C145.591 226.415 145.557 226.338 145.557 226.238C145.557 226.145 145.591 226.075 145.657 226.028C145.731 225.975 145.827 225.951 145.947 225.958L147.257 226.008L147.147 226.158L146.457 225.048C146.391 224.948 146.364 224.855 146.377 224.768C146.391 224.681 146.437 224.615 146.517 224.568C146.597 224.521 146.677 224.518 146.757 224.558C146.844 224.598 146.914 224.671 146.967 224.778L147.537 225.878H147.437L148.007 224.778C148.067 224.671 148.137 224.598 148.217 224.558C148.304 224.518 148.387 224.521 148.467 224.568C148.547 224.621 148.591 224.691 148.597 224.778C148.611 224.865 148.584 224.958 148.517 225.058L147.827 226.158L147.717 226.008L149.027 225.958C149.147 225.951 149.241 225.975 149.307 226.028C149.381 226.075 149.417 226.145 149.417 226.238C149.417 226.338 149.381 226.415 149.307 226.468C149.241 226.515 149.147 226.538 149.027 226.538L147.717 226.488L147.827 226.328L148.517 227.428C148.584 227.528 148.611 227.621 148.597 227.708C148.591 227.788 148.547 227.851 148.467 227.898C148.381 227.951 148.294 227.958 148.207 227.918C148.127 227.878 148.061 227.808 148.007 227.708L147.437 226.608H147.537L146.957 227.708C146.904 227.815 146.837 227.888 146.757 227.928C146.677 227.968 146.597 227.961 146.517 227.908ZM154.319 227.908C154.233 227.861 154.183 227.795 154.169 227.708C154.163 227.621 154.189 227.528 154.249 227.428L154.949 226.328L155.059 226.488L153.749 226.538C153.629 226.538 153.533 226.515 153.459 226.468C153.393 226.415 153.359 226.338 153.359 226.238C153.359 226.145 153.393 226.075 153.459 226.028C153.533 225.975 153.629 225.951 153.749 225.958L155.059 226.008L154.949 226.158L154.259 225.048C154.193 224.948 154.166 224.855 154.179 224.768C154.193 224.681 154.239 224.615 154.319 224.568C154.399 224.521 154.479 224.518 154.559 224.558C154.646 224.598 154.716 224.671 154.769 224.778L155.339 225.878H155.239L155.809 224.778C155.869 224.671 155.939 224.598 156.019 224.558C156.106 224.518 156.189 224.521 156.269 224.568C156.349 224.621 156.393 224.691 156.399 224.778C156.413 224.865 156.386 224.958 156.319 225.058L155.629 226.158L155.519 226.008L156.829 225.958C156.949 225.951 157.043 225.975 157.109 226.028C157.183 226.075 157.219 226.145 157.219 226.238C157.219 226.338 157.183 226.415 157.109 226.468C157.043 226.515 156.949 226.538 156.829 226.538L155.519 226.488L155.629 226.328L156.319 227.428C156.386 227.528 156.413 227.621 156.399 227.708C156.393 227.788 156.349 227.851 156.269 227.898C156.183 227.951 156.096 227.958 156.009 227.918C155.929 227.878 155.863 227.808 155.809 227.708L155.239 226.608H155.339L154.759 227.708C154.706 227.815 154.639 227.888 154.559 227.928C154.479 227.968 154.399 227.961 154.319 227.908ZM162.121 227.908C162.035 227.861 161.985 227.795 161.971 227.708C161.965 227.621 161.991 227.528 162.051 227.428L162.751 226.328L162.861 226.488L161.551 226.538C161.431 226.538 161.335 226.515 161.261 226.468C161.195 226.415 161.161 226.338 161.161 226.238C161.161 226.145 161.195 226.075 161.261 226.028C161.335 225.975 161.431 225.951 161.551 225.958L162.861 226.008L162.751 226.158L162.061 225.048C161.995 224.948 161.968 224.855 161.981 224.768C161.995 224.681 162.041 224.615 162.121 224.568C162.201 224.521 162.281 224.518 162.361 224.558C162.448 224.598 162.518 224.671 162.571 224.778L163.141 225.878H163.041L163.611 224.778C163.671 224.671 163.741 224.598 163.821 224.558C163.908 224.518 163.991 224.521 164.071 224.568C164.151 224.621 164.195 224.691 164.201 224.778C164.215 224.865 164.188 224.958 164.121 225.058L163.431 226.158L163.321 226.008L164.631 225.958C164.751 225.951 164.845 225.975 164.911 226.028C164.985 226.075 165.021 226.145 165.021 226.238C165.021 226.338 164.985 226.415 164.911 226.468C164.845 226.515 164.751 226.538 164.631 226.538L163.321 226.488L163.431 226.328L164.121 227.428C164.188 227.528 164.215 227.621 164.201 227.708C164.195 227.788 164.151 227.851 164.071 227.898C163.985 227.951 163.898 227.958 163.811 227.918C163.731 227.878 163.665 227.808 163.611 227.708L163.041 226.608H163.141L162.561 227.708C162.508 227.815 162.441 227.888 162.361 227.928C162.281 227.968 162.201 227.961 162.121 227.908ZM169.923 227.908C169.837 227.861 169.787 227.795 169.773 227.708C169.767 227.621 169.793 227.528 169.853 227.428L170.553 226.328L170.663 226.488L169.353 226.538C169.233 226.538 169.137 226.515 169.063 226.468C168.997 226.415 168.963 226.338 168.963 226.238C168.963 226.145 168.997 226.075 169.063 226.028C169.137 225.975 169.233 225.951 169.353 225.958L170.663 226.008L170.553 226.158L169.863 225.048C169.797 224.948 169.77 224.855 169.783 224.768C169.797 224.681 169.843 224.615 169.923 224.568C170.003 224.521 170.083 224.518 170.163 224.558C170.25 224.598 170.32 224.671 170.373 224.778L170.943 225.878H170.843L171.413 224.778C171.473 224.671 171.543 224.598 171.623 224.558C171.71 224.518 171.793 224.521 171.873 224.568C171.953 224.621 171.997 224.691 172.003 224.778C172.017 224.865 171.99 224.958 171.923 225.058L171.233 226.158L171.123 226.008L172.433 225.958C172.553 225.951 172.647 225.975 172.713 226.028C172.787 226.075 172.823 226.145 172.823 226.238C172.823 226.338 172.787 226.415 172.713 226.468C172.647 226.515 172.553 226.538 172.433 226.538L171.123 226.488L171.233 226.328L171.923 227.428C171.99 227.528 172.017 227.621 172.003 227.708C171.997 227.788 171.953 227.851 171.873 227.898C171.787 227.951 171.7 227.958 171.613 227.918C171.533 227.878 171.467 227.808 171.413 227.708L170.843 226.608H170.943L170.363 227.708C170.31 227.815 170.243 227.888 170.163 227.928C170.083 227.968 170.003 227.961 169.923 227.908Z" fill="#0FAF62"/>
<g filter="url(#filter1_d_3828_5049)">
<rect x="258.882" y="90.1782" width="278.118" height="37.0894" rx="5" fill="#2E6149"/>
</g>
<rect x="373.871" y="105.731" width="20.0566" height="4.78573" rx="2.39286" fill="white"/>
<rect x="399.278" y="105.731" width="18.7195" height="4.78573" rx="2.39286" fill="white"/>
<rect x="274.927" y="100.945" width="16.0453" height="14.3572" rx="5" fill="white"/>
<rect x="423.346" y="105.731" width="20.0566" height="4.78573" rx="2.39286" fill="white"/>
<rect x="448.752" y="105.731" width="20.0566" height="4.78573" rx="2.39286" fill="white"/>
<rect x="474.156" y="105.731" width="20.0566" height="4.78573" rx="2.39286" fill="white"/>
<rect x="516.945" y="106.928" width="5.34843" height="2.39286" rx="1.19643" fill="white"/>
<defs>
<filter id="filter0_d_3828_5049" x="49" y="125.839" width="246.577" height="189.161" filterUnits="userSpaceOnUse" color-interpolation-filters="sRGB">
<feFlood flood-opacity="0" result="BackgroundImageFix"/>
<feColorMatrix in="SourceAlpha" type="matrix" values="0 0 0 0 0 0 0 0 0 0 0 0 0 0 0 0 0 0 127 0" result="hardAlpha"/>
<feOffset dx="5" dy="10"/>
<feGaussianBlur stdDeviation="10.5"/>
<feComposite in2="hardAlpha" operator="out"/>
<feColorMatrix type="matrix" values="0 0 0 0 0.700272 0 0 0 0 0.700272 0 0 0 0 0.700272 0 0 0 0.25 0"/>
<feBlend mode="normal" in2="BackgroundImageFix" result="effect1_dropShadow_3828_5049"/>
<feBlend mode="normal" in="SourceGraphic" in2="effect1_dropShadow_3828_5049" result="shape"/>
</filter>
<filter id="filter1_d_3828_5049" x="257.882" y="90.1782" width="292.118" height="51.0894" filterUnits="userSpaceOnUse" color-interpolation-filters="sRGB">
<feFlood flood-opacity="0" result="BackgroundImageFix"/>
<feColorMatrix in="SourceAlpha" type="matrix" values="0 0 0 0 0 0 0 0 0 0 0 0 0 0 0 0 0 0 127 0" result="hardAlpha"/>
<feOffset dx="6" dy="7"/>
<feGaussianBlur stdDeviation="3.5"/>
<feComposite in2="hardAlpha" operator="out"/>
<feColorMatrix type="matrix" values="0 0 0 0 0.500272 0 0 0 0 0.500272 0 0 0 0 0.500272 0 0 0 0.25 0"/>
<feBlend mode="normal" in2="BackgroundImageFix" result="effect1_dropShadow_3828_5049"/>
<feBlend mode="normal" in="SourceGraphic" in2="effect1_dropShadow_3828_5049" result="shape"/>
</filter>
</defs>
</svg>
