<svg width="97" height="97" viewBox="0 0 97 97" fill="none" xmlns="http://www.w3.org/2000/svg">
<rect width="97" height="97" rx="30" fill="#EFFDF4"/>
<path d="M63.8098 56.3863L59.349 52.3831C57.2873 50.5328 54.0338 52.2267 54.3671 54.9768L55.5753 64.9448C55.6826 65.8298 56.178 66.6213 56.9272 67.1047L60.1797 69.2031C62.176 70.491 64.806 69.0579 64.806 66.6822V58.619C64.806 57.7671 64.4438 56.9553 63.8098 56.3863Z" fill="#62D68C"/>
<path d="M32.7723 56.3863L37.233 52.3831C39.2947 50.5328 42.5483 52.2267 42.2149 54.9768L41.0067 64.9448C40.8994 65.8298 40.404 66.6213 39.6549 67.1047L36.4024 69.2031C34.4061 70.491 31.776 69.0579 31.776 66.6822V58.619C31.776 57.7671 32.1382 56.9553 32.7723 56.3863Z" fill="#62D68C"/>
<path d="M52.296 62.2493H44.6438C41.4419 62.2493 38.7828 59.7246 38.7914 56.5228C38.8476 35.6691 45.1287 26.3575 48.5322 24.25C56.1325 29.5086 58.0439 45.6348 58.0824 56.6248C58.0935 59.7905 55.4616 62.2493 52.296 62.2493Z" fill="#0FAF62"/>
<rect x="45.8076" y="41.7881" width="5.85345" height="5.85345" rx="2.92672" transform="rotate(-90 45.8076 41.7881)" fill="white"/>
</svg>
