<svg width="129" height="160" viewBox="0 0 129 160" fill="none" xmlns="http://www.w3.org/2000/svg">
<rect y="160" width="160" height="129" rx="23" transform="rotate(-90 0 160)" fill="#0FAF62"/>
<path d="M81.6645 89.8633L72.9814 98.5198C71.8689 99.6283 70.3702 100.247 68.7995 100.247H45.9226C42.6523 100.247 40 97.5918 40 94.3179V59.9291C40 56.6552 42.6523 54 45.9226 54H77.4826C80.7529 54 83.4052 56.6552 83.4052 59.9291V85.6614C83.4103 87.2391 82.782 88.7497 81.6645 89.8633Z" stroke="white" stroke-width="2.5" stroke-miterlimit="10"/>
<path d="M86.9279 95.3953L78.2448 104.052C77.1323 105.16 75.6336 105.779 74.0629 105.779H51.1912C47.9209 105.779 45.2686 103.124 45.2686 99.8499V65.4611C45.2686 62.1872 47.9209 59.532 51.1912 59.532H82.7511C86.0214 59.532 88.6737 62.1872 88.6737 65.4611V91.1934C88.6737 92.7711 88.0454 94.2817 86.9279 95.3953Z" fill="#44C642"/>
<path d="M53.7256 73.5492C53.7256 72.9058 54.2471 72.3843 54.8905 72.3843H79.7424C80.3858 72.3843 80.9073 72.9058 80.9073 73.5492C80.9073 74.1926 80.3858 74.7141 79.7424 74.7141H54.8905C54.2471 74.7141 53.7256 74.1926 53.7256 73.5492Z" fill="white"/>
<path d="M53.7256 78.986C53.7256 78.3426 54.2471 77.821 54.8905 77.821H79.7424C80.3858 77.821 80.9073 78.3426 80.9073 78.986C80.9073 79.6294 80.3858 80.1509 79.7424 80.1509H54.8905C54.2471 80.1509 53.7256 79.6294 53.7256 78.986Z" fill="white"/>
<path d="M53.7256 84.4223C53.7256 83.7789 54.2471 83.2573 54.8905 83.2573H79.7424C80.3858 83.2573 80.9073 83.7789 80.9073 84.4223C80.9073 85.0656 80.3858 85.5872 79.7424 85.5872H54.8905C54.2471 85.5872 53.7256 85.0656 53.7256 84.4223Z" fill="white"/>
<path d="M53.7256 89.8585C53.7256 89.2152 54.2471 88.6936 54.8905 88.6936H67.3165C67.9598 88.6936 68.4814 89.2152 68.4814 89.8585C68.4814 90.5019 67.9598 91.0235 67.3165 91.0235H54.8905C54.2471 91.0235 53.7256 90.5019 53.7256 89.8585Z" fill="white"/>
</svg>
