<svg width="668" height="494" viewBox="0 0 668 494" fill="none" xmlns="http://www.w3.org/2000/svg">
<path d="M65 50C65 22.3858 87.3858 0 115 0H618C645.614 0 668 22.3858 668 50V400C668 427.614 645.614 450 618 450H115C87.3858 450 65 427.614 65 400V50Z" fill="white"/>
<path d="M85 50C85 33.4315 98.4315 20 115 20H619C635.569 20 649 33.4315 649 50V400C649 416.569 635.569 430 619 430H115C98.4315 430 85 416.569 85 400V50Z" fill="#F7F7F7"/>
<path d="M472.47 298.17C473.77 298.17 474.92 298.46 475.92 299.04C476.94 299.6 477.73 300.4 478.29 301.44C478.87 302.46 479.16 303.64 479.16 304.98C479.16 306.42 478.82 307.69 478.14 308.79C477.46 309.89 476.5 310.74 475.26 311.34C474.02 311.94 472.59 312.24 470.97 312.24C469.73 312.24 468.51 312.06 467.31 311.7C466.13 311.34 465.11 310.84 464.25 310.2C463.93 309.94 463.69 309.67 463.53 309.39C463.39 309.09 463.32 308.74 463.32 308.34C463.32 307.72 463.49 307.2 463.83 306.78C464.17 306.34 464.59 306.12 465.09 306.12C465.39 306.12 465.64 306.16 465.84 306.24C466.04 306.32 466.34 306.47 466.74 306.69L467.34 306.99C467.96 307.29 468.52 307.53 469.02 307.71C469.54 307.89 470.1 307.98 470.7 307.98C471.82 307.98 472.65 307.76 473.19 307.32C473.73 306.86 474 306.15 474 305.19C474 304.29 473.72 303.59 473.16 303.09C472.6 302.59 471.82 302.34 470.82 302.34C470.22 302.34 469.67 302.39 469.17 302.49C468.69 302.59 468.12 302.77 467.46 303.03C467.04 303.25 466.59 303.36 466.11 303.36C465.55 303.36 465.08 303.2 464.7 302.88C464.32 302.54 464.13 302.1 464.13 301.56V293.43C464.13 292.59 464.35 291.95 464.79 291.51C465.23 291.07 465.86 290.85 466.68 290.85H475.98C477.72 290.85 478.59 291.54 478.59 292.92C478.59 294.32 477.72 295.02 475.98 295.02H469.5V298.71C470.34 298.35 471.33 298.17 472.47 298.17ZM488.988 312.27C486.368 312.27 484.368 311.34 482.988 309.48C481.608 307.62 480.918 304.93 480.918 301.41C480.918 297.91 481.608 295.23 482.988 293.37C484.368 291.51 486.368 290.58 488.988 290.58C491.588 290.58 493.578 291.51 494.958 293.37C496.358 295.23 497.058 297.91 497.058 301.41C497.058 304.93 496.368 307.62 494.988 309.48C493.608 311.34 491.608 312.27 488.988 312.27ZM488.988 308.1C489.948 308.1 490.638 307.58 491.058 306.54C491.478 305.5 491.688 303.79 491.688 301.41C491.688 299.05 491.478 297.35 491.058 296.31C490.638 295.27 489.948 294.75 488.988 294.75C488.028 294.75 487.338 295.27 486.918 296.31C486.498 297.33 486.288 299.03 486.288 301.41C486.288 303.79 486.498 305.5 486.918 306.54C487.338 307.58 488.028 308.1 488.988 308.1ZM508.957 311.28C508.697 311.72 508.387 312.05 508.027 312.27C507.687 312.49 507.337 312.6 506.977 312.6C506.497 312.6 506.077 312.42 505.717 312.06C505.357 311.7 505.177 311.26 505.177 310.74C505.177 310.28 505.317 309.81 505.597 309.33L515.887 291.57C516.147 291.13 516.447 290.8 516.787 290.58C517.147 290.36 517.507 290.25 517.867 290.25C518.367 290.25 518.787 290.43 519.127 290.79C519.487 291.13 519.667 291.57 519.667 292.11C519.667 292.57 519.527 293.04 519.247 293.52L508.957 311.28ZM504.487 303.42C502.727 303.42 501.347 302.86 500.347 301.74C499.347 300.62 498.847 299.01 498.847 296.91C498.847 294.85 499.347 293.27 500.347 292.17C501.347 291.05 502.727 290.49 504.487 290.49C506.247 290.49 507.627 291.05 508.627 292.17C509.627 293.27 510.127 294.86 510.127 296.94C510.127 299.04 509.627 300.65 508.627 301.77C507.627 302.87 506.247 303.42 504.487 303.42ZM504.487 300.18C504.947 300.18 505.277 299.94 505.477 299.46C505.697 298.96 505.807 298.12 505.807 296.94C505.807 295.8 505.697 294.99 505.477 294.51C505.257 294.01 504.927 293.76 504.487 293.76C504.027 293.76 503.687 294.01 503.467 294.51C503.267 294.99 503.167 295.8 503.167 296.94C503.167 298.12 503.267 298.96 503.467 299.46C503.687 299.94 504.027 300.18 504.487 300.18ZM520.357 312.21C518.597 312.21 517.217 311.65 516.217 310.53C515.217 309.41 514.717 307.8 514.717 305.7C514.717 303.64 515.217 302.06 516.217 300.96C517.217 299.84 518.597 299.28 520.357 299.28C522.117 299.28 523.497 299.84 524.497 300.96C525.497 302.06 525.997 303.65 525.997 305.73C525.997 307.83 525.497 309.44 524.497 310.56C523.497 311.66 522.117 312.21 520.357 312.21ZM520.357 308.97C520.817 308.97 521.147 308.73 521.347 308.25C521.567 307.75 521.677 306.91 521.677 305.73C521.677 304.59 521.567 303.77 521.347 303.27C521.127 302.77 520.797 302.52 520.357 302.52C519.897 302.52 519.557 302.77 519.337 303.27C519.137 303.75 519.037 304.57 519.037 305.73C519.037 306.91 519.137 307.75 519.337 308.25C519.557 308.73 519.897 308.97 520.357 308.97Z" fill="#242331"/>
<path d="M476.629 262.455V277H473.589V264.955H467.709V277H464.669V262.455H476.629ZM484.129 277.213C483.026 277.213 482.072 276.979 481.267 276.51C480.467 276.036 479.849 275.378 479.413 274.536C478.978 273.688 478.76 272.705 478.76 271.588C478.76 270.461 478.978 269.476 479.413 268.634C479.849 267.786 480.467 267.128 481.267 266.659C482.072 266.186 483.026 265.949 484.129 265.949C485.233 265.949 486.184 266.186 486.984 266.659C487.789 267.128 488.41 267.786 488.845 268.634C489.281 269.476 489.499 270.461 489.499 271.588C489.499 272.705 489.281 273.688 488.845 274.536C488.41 275.378 487.789 276.036 486.984 276.51C486.184 276.979 485.233 277.213 484.129 277.213ZM484.144 274.869C484.645 274.869 485.064 274.727 485.401 274.443C485.737 274.154 485.99 273.761 486.161 273.264C486.336 272.767 486.423 272.201 486.423 271.567C486.423 270.932 486.336 270.366 486.161 269.869C485.99 269.372 485.737 268.979 485.401 268.69C485.064 268.402 484.645 268.257 484.144 268.257C483.637 268.257 483.211 268.402 482.865 268.69C482.524 268.979 482.266 269.372 482.091 269.869C481.921 270.366 481.835 270.932 481.835 271.567C481.835 272.201 481.921 272.767 482.091 273.264C482.266 273.761 482.524 274.154 482.865 274.443C483.211 274.727 483.637 274.869 484.144 274.869ZM490.605 273.911H493.538C493.552 274.27 493.713 274.554 494.021 274.763C494.329 274.971 494.727 275.075 495.214 275.075C495.707 275.075 496.121 274.962 496.457 274.734C496.793 274.502 496.961 274.171 496.961 273.74C496.961 273.475 496.895 273.245 496.763 273.051C496.63 272.852 496.445 272.696 496.209 272.582C495.972 272.469 495.697 272.412 495.385 272.412H493.815V270.43H495.385C495.853 270.43 496.213 270.321 496.464 270.104C496.72 269.886 496.848 269.614 496.848 269.287C496.848 268.918 496.715 268.622 496.45 268.399C496.19 268.172 495.837 268.058 495.392 268.058C494.942 268.058 494.568 268.16 494.27 268.364C493.976 268.562 493.825 268.823 493.815 269.145H490.896C490.906 268.491 491.102 267.926 491.486 267.447C491.874 266.969 492.395 266.6 493.048 266.339C493.706 266.079 494.442 265.949 495.257 265.949C496.147 265.949 496.914 266.074 497.558 266.325C498.207 266.571 498.704 266.924 499.05 267.384C499.4 267.843 499.575 268.39 499.575 269.024C499.575 269.602 499.386 270.085 499.007 270.473C498.628 270.861 498.098 271.138 497.416 271.304V271.418C497.866 271.446 498.273 271.567 498.638 271.78C499.002 271.993 499.293 272.286 499.511 272.661C499.729 273.03 499.838 273.468 499.838 273.974C499.838 274.652 499.639 275.232 499.241 275.714C498.848 276.197 498.304 276.569 497.608 276.83C496.916 277.085 496.123 277.213 495.228 277.213C494.357 277.213 493.576 277.088 492.885 276.837C492.198 276.581 491.651 276.207 491.244 275.714C490.842 275.222 490.629 274.621 490.605 273.911ZM504.284 273.009L508.212 266.091H511.194V277H508.311V270.061L504.398 277H501.393V266.091H504.284V273.009ZM512.224 268.47V266.091H522.111V268.47H518.595V277H515.712V268.47H512.224ZM526.536 273.009L530.463 266.091H533.446V277H530.562V270.061L526.649 277H523.645V266.091H526.536V273.009ZM535.571 277V266.091H540.223C541.568 266.091 542.631 266.347 543.412 266.858C544.194 267.369 544.584 268.096 544.584 269.038C544.584 269.63 544.364 270.123 543.924 270.516C543.483 270.909 542.873 271.174 542.091 271.311C542.745 271.358 543.301 271.508 543.76 271.759C544.224 272.005 544.577 272.324 544.819 272.717C545.065 273.11 545.188 273.546 545.188 274.024C545.188 274.644 545.022 275.177 544.691 275.622C544.364 276.067 543.883 276.408 543.249 276.645C542.619 276.882 541.85 277 540.941 277H535.571ZM538.391 274.734H540.941C541.362 274.734 541.691 274.635 541.928 274.436C542.169 274.232 542.29 273.955 542.29 273.605C542.29 273.217 542.169 272.911 541.928 272.689C541.691 272.466 541.362 272.355 540.941 272.355H538.391V274.734ZM538.391 270.58H540.287C540.59 270.58 540.848 270.537 541.062 270.452C541.279 270.362 541.445 270.234 541.559 270.068C541.677 269.902 541.736 269.706 541.736 269.479C541.736 269.143 541.601 268.88 541.331 268.69C541.062 268.501 540.692 268.406 540.223 268.406H538.391V270.58Z" fill="#BDBDBD"/>
<circle cx="444" cy="269" r="6" fill="white" stroke="#0FAF62" stroke-width="4"/>
<path d="M476.58 225.62C477.46 225.62 478.11 225.8 478.53 226.16C478.97 226.5 479.19 227.04 479.19 227.78C479.19 228.54 478.97 229.1 478.53 229.46C478.11 229.82 477.46 230 476.58 230H465.63C464.91 230 464.34 229.79 463.92 229.37C463.5 228.93 463.29 228.38 463.29 227.72C463.29 226.86 463.63 226.08 464.31 225.38L470.67 218.75C471.99 217.37 472.65 216.1 472.65 214.94C472.65 214.26 472.45 213.74 472.05 213.38C471.67 213.02 471.12 212.84 470.4 212.84C469.82 212.84 469.28 212.93 468.78 213.11C468.3 213.27 467.74 213.51 467.1 213.83L466.5 214.13C466.42 214.17 466.26 214.26 466.02 214.4C465.8 214.52 465.6 214.61 465.42 214.67C465.24 214.73 465.05 214.76 464.85 214.76C464.35 214.76 463.93 214.54 463.59 214.1C463.25 213.64 463.08 213.1 463.08 212.48C463.08 212.04 463.14 211.68 463.26 211.4C463.4 211.12 463.65 210.86 464.01 210.62C464.95 209.98 466 209.48 467.16 209.12C468.34 208.76 469.5 208.58 470.64 208.58C472.12 208.58 473.42 208.83 474.54 209.33C475.66 209.81 476.52 210.51 477.12 211.43C477.74 212.33 478.05 213.37 478.05 214.55C478.05 215.77 477.8 216.89 477.3 217.91C476.82 218.91 475.99 220.03 474.81 221.27L470.55 225.62H476.58ZM489.018 230.27C486.398 230.27 484.398 229.34 483.018 227.48C481.638 225.62 480.948 222.93 480.948 219.41C480.948 215.91 481.638 213.23 483.018 211.37C484.398 209.51 486.398 208.58 489.018 208.58C491.618 208.58 493.608 209.51 494.988 211.37C496.388 213.23 497.088 215.91 497.088 219.41C497.088 222.93 496.398 225.62 495.018 227.48C493.638 229.34 491.638 230.27 489.018 230.27ZM489.018 226.1C489.978 226.1 490.668 225.58 491.088 224.54C491.508 223.5 491.718 221.79 491.718 219.41C491.718 217.05 491.508 215.35 491.088 214.31C490.668 213.27 489.978 212.75 489.018 212.75C488.058 212.75 487.368 213.27 486.948 214.31C486.528 215.33 486.318 217.03 486.318 219.41C486.318 221.79 486.528 223.5 486.948 224.54C487.368 225.58 488.058 226.1 489.018 226.1ZM508.986 229.28C508.726 229.72 508.416 230.05 508.056 230.27C507.716 230.49 507.366 230.6 507.006 230.6C506.526 230.6 506.106 230.42 505.746 230.06C505.386 229.7 505.206 229.26 505.206 228.74C505.206 228.28 505.346 227.81 505.626 227.33L515.916 209.57C516.176 209.13 516.476 208.8 516.816 208.58C517.176 208.36 517.536 208.25 517.896 208.25C518.396 208.25 518.816 208.43 519.156 208.79C519.516 209.13 519.696 209.57 519.696 210.11C519.696 210.57 519.556 211.04 519.276 211.52L508.986 229.28ZM504.516 221.42C502.756 221.42 501.376 220.86 500.376 219.74C499.376 218.62 498.876 217.01 498.876 214.91C498.876 212.85 499.376 211.27 500.376 210.17C501.376 209.05 502.756 208.49 504.516 208.49C506.276 208.49 507.656 209.05 508.656 210.17C509.656 211.27 510.156 212.86 510.156 214.94C510.156 217.04 509.656 218.65 508.656 219.77C507.656 220.87 506.276 221.42 504.516 221.42ZM504.516 218.18C504.976 218.18 505.306 217.94 505.506 217.46C505.726 216.96 505.836 216.12 505.836 214.94C505.836 213.8 505.726 212.99 505.506 212.51C505.286 212.01 504.956 211.76 504.516 211.76C504.056 211.76 503.716 212.01 503.496 212.51C503.296 212.99 503.196 213.8 503.196 214.94C503.196 216.12 503.296 216.96 503.496 217.46C503.716 217.94 504.056 218.18 504.516 218.18ZM520.386 230.21C518.626 230.21 517.246 229.65 516.246 228.53C515.246 227.41 514.746 225.8 514.746 223.7C514.746 221.64 515.246 220.06 516.246 218.96C517.246 217.84 518.626 217.28 520.386 217.28C522.146 217.28 523.526 217.84 524.526 218.96C525.526 220.06 526.026 221.65 526.026 223.73C526.026 225.83 525.526 227.44 524.526 228.56C523.526 229.66 522.146 230.21 520.386 230.21ZM520.386 226.97C520.846 226.97 521.176 226.73 521.376 226.25C521.596 225.75 521.706 224.91 521.706 223.73C521.706 222.59 521.596 221.77 521.376 221.27C521.156 220.77 520.826 220.52 520.386 220.52C519.926 220.52 519.586 220.77 519.366 221.27C519.166 221.75 519.066 222.57 519.066 223.73C519.066 224.91 519.166 225.75 519.366 226.25C519.586 226.73 519.926 226.97 520.386 226.97Z" fill="#242331"/>
<path d="M464.264 195V180.455H467.339V186.456H473.582V180.455H476.651V195H473.582V188.991H467.339V195H464.264ZM483.801 195.213C482.679 195.213 481.713 194.986 480.903 194.531C480.098 194.072 479.478 193.423 479.042 192.585C478.607 191.742 478.389 190.746 478.389 189.595C478.389 188.473 478.607 187.488 479.042 186.641C479.478 185.793 480.091 185.133 480.882 184.659C481.677 184.186 482.61 183.949 483.68 183.949C484.4 183.949 485.07 184.065 485.69 184.297C486.315 184.524 486.86 184.867 487.324 185.327C487.792 185.786 488.157 186.364 488.417 187.06C488.678 187.751 488.808 188.561 488.808 189.489V190.32H479.596V188.445H485.96C485.96 188.009 485.865 187.623 485.676 187.287C485.486 186.951 485.224 186.688 484.887 186.499C484.556 186.304 484.17 186.207 483.73 186.207C483.271 186.207 482.863 186.314 482.508 186.527C482.158 186.735 481.883 187.017 481.684 187.372C481.486 187.723 481.384 188.113 481.379 188.544V190.327C481.379 190.866 481.478 191.333 481.677 191.726C481.881 192.119 482.167 192.422 482.537 192.635C482.906 192.848 483.344 192.955 483.851 192.955C484.187 192.955 484.495 192.907 484.774 192.812C485.053 192.718 485.292 192.576 485.491 192.386C485.69 192.197 485.842 191.965 485.946 191.69L488.744 191.875C488.602 192.547 488.311 193.134 487.87 193.636C487.435 194.134 486.871 194.522 486.18 194.801C485.494 195.076 484.7 195.213 483.801 195.213ZM497.954 184.091V186.47H493.423V195H490.482V184.091H497.954ZM502.219 195.206C501.523 195.206 500.903 195.085 500.358 194.844C499.814 194.598 499.383 194.235 499.066 193.757C498.753 193.274 498.597 192.673 498.597 191.953C498.597 191.347 498.708 190.838 498.931 190.426C499.153 190.014 499.456 189.683 499.84 189.432C500.223 189.181 500.659 188.991 501.147 188.864C501.639 188.736 502.155 188.646 502.695 188.594C503.329 188.527 503.841 188.466 504.229 188.409C504.617 188.348 504.899 188.258 505.074 188.139C505.249 188.021 505.337 187.846 505.337 187.614V187.571C505.337 187.121 505.195 186.773 504.911 186.527C504.631 186.281 504.234 186.158 503.718 186.158C503.173 186.158 502.74 186.278 502.418 186.52C502.096 186.757 501.883 187.055 501.779 187.415L498.98 187.188C499.122 186.525 499.402 185.952 499.818 185.469C500.235 184.981 500.772 184.607 501.431 184.347C502.093 184.081 502.861 183.949 503.732 183.949C504.338 183.949 504.918 184.02 505.472 184.162C506.031 184.304 506.525 184.524 506.956 184.822C507.392 185.121 507.735 185.504 507.986 185.973C508.237 186.437 508.362 186.993 508.362 187.642V195H505.493V193.487H505.408C505.233 193.828 504.998 194.129 504.705 194.389C504.411 194.645 504.058 194.846 503.647 194.993C503.235 195.135 502.759 195.206 502.219 195.206ZM503.085 193.118C503.531 193.118 503.924 193.03 504.264 192.855C504.605 192.675 504.873 192.434 505.067 192.131C505.261 191.828 505.358 191.484 505.358 191.101V189.943C505.263 190.005 505.133 190.062 504.968 190.114C504.807 190.161 504.624 190.206 504.421 190.249C504.217 190.286 504.013 190.322 503.81 190.355C503.606 190.384 503.422 190.41 503.256 190.433C502.901 190.485 502.591 190.568 502.325 190.682C502.06 190.795 501.854 190.949 501.708 191.143C501.561 191.333 501.487 191.57 501.487 191.854C501.487 192.266 501.637 192.58 501.935 192.798C502.238 193.011 502.621 193.118 503.085 193.118ZM509.314 186.47V184.091H519.201V186.47H515.685V195H512.801V186.47H509.314ZM523.625 191.009L527.553 184.091H530.536V195H527.652V188.061L523.739 195H520.735V184.091H523.625V191.009ZM532.661 195V184.091H537.313C538.658 184.091 539.721 184.347 540.502 184.858C541.283 185.369 541.674 186.096 541.674 187.038C541.674 187.63 541.454 188.123 541.014 188.516C540.573 188.909 539.962 189.174 539.181 189.311C539.835 189.358 540.391 189.508 540.85 189.759C541.314 190.005 541.667 190.324 541.908 190.717C542.155 191.11 542.278 191.546 542.278 192.024C542.278 192.644 542.112 193.177 541.781 193.622C541.454 194.067 540.973 194.408 540.339 194.645C539.709 194.882 538.94 195 538.031 195H532.661ZM535.481 192.734H538.031C538.452 192.734 538.781 192.635 539.018 192.436C539.259 192.232 539.38 191.955 539.38 191.605C539.38 191.217 539.259 190.911 539.018 190.689C538.781 190.466 538.452 190.355 538.031 190.355H535.481V192.734ZM535.481 188.58H537.377C537.68 188.58 537.938 188.537 538.151 188.452C538.369 188.362 538.535 188.234 538.649 188.068C538.767 187.902 538.826 187.706 538.826 187.479C538.826 187.143 538.691 186.88 538.421 186.69C538.151 186.501 537.782 186.406 537.313 186.406H535.481V188.58Z" fill="#BDBDBD"/>
<circle cx="444" cy="187" r="6" fill="white" stroke="#EE2A2A" stroke-width="4"/>
<path d="M470.37 148.33C469.35 148.33 468.33 148.23 467.31 148.03C466.29 147.83 465.41 147.55 464.67 147.19C464.03 146.89 463.58 146.52 463.32 146.08C463.08 145.64 462.98 145.19 463.02 144.73C463.06 144.27 463.22 143.86 463.5 143.5C463.8 143.14 464.18 142.9 464.64 142.78C465.12 142.64 465.66 142.7 466.26 142.96C467 143.28 467.68 143.5 468.3 143.62C468.92 143.74 469.54 143.8 470.16 143.8C470.88 143.8 471.48 143.72 471.96 143.56C472.44 143.4 472.8 143.16 473.04 142.84C473.28 142.5 473.4 142.08 473.4 141.58C473.4 140.88 473.15 140.37 472.65 140.05C472.17 139.71 471.46 139.54 470.52 139.54H468.9C468.14 139.54 467.56 139.35 467.16 138.97C466.76 138.59 466.56 138.05 466.56 137.35C466.56 136.65 466.76 136.11 467.16 135.73C467.56 135.35 468.14 135.16 468.9 135.16H469.98C470.56 135.16 471.05 135.08 471.45 134.92C471.87 134.76 472.19 134.53 472.41 134.23C472.63 133.91 472.74 133.52 472.74 133.06C472.74 132.4 472.5 131.9 472.02 131.56C471.56 131.22 470.87 131.05 469.95 131.05C469.39 131.05 468.82 131.11 468.24 131.23C467.66 131.35 467.04 131.56 466.38 131.86C465.86 132.08 465.38 132.13 464.94 132.01C464.52 131.89 464.17 131.66 463.89 131.32C463.63 130.96 463.47 130.57 463.41 130.15C463.35 129.71 463.42 129.28 463.62 128.86C463.82 128.44 464.2 128.09 464.76 127.81C465.6 127.39 466.51 127.07 467.49 126.85C468.49 126.63 469.49 126.52 470.49 126.52C472.07 126.52 473.42 126.75 474.54 127.21C475.66 127.67 476.51 128.34 477.09 129.22C477.69 130.08 477.99 131.12 477.99 132.34C477.99 133.14 477.84 133.88 477.54 134.56C477.24 135.24 476.8 135.81 476.22 136.27C475.64 136.71 474.96 137.03 474.18 137.23V136.81C475.58 137.03 476.67 137.62 477.45 138.58C478.25 139.52 478.65 140.7 478.65 142.12C478.65 143.4 478.32 144.51 477.66 145.45C477 146.39 476.05 147.11 474.81 147.61C473.57 148.09 472.09 148.33 470.37 148.33ZM488.988 148.33C486.388 148.33 484.388 147.38 482.988 145.48C481.608 143.56 480.918 140.85 480.918 137.35C480.918 134.99 481.228 133.01 481.848 131.41C482.468 129.79 483.378 128.57 484.578 127.75C485.778 126.93 487.248 126.52 488.988 126.52C491.608 126.52 493.608 127.44 494.988 129.28C496.368 131.12 497.058 133.8 497.058 137.32C497.058 139.66 496.748 141.65 496.128 143.29C495.508 144.93 494.598 146.18 493.398 147.04C492.198 147.9 490.728 148.33 488.988 148.33ZM488.988 143.95C489.948 143.95 490.658 143.43 491.118 142.39C491.598 141.33 491.838 139.64 491.838 137.32C491.838 135.02 491.598 133.38 491.118 132.4C490.658 131.4 489.948 130.9 488.988 130.9C488.028 130.9 487.308 131.4 486.828 132.4C486.368 133.38 486.138 135.02 486.138 137.32C486.138 139.64 486.368 141.33 486.828 142.39C487.308 143.43 488.028 143.95 488.988 143.95ZM508.867 147.46C508.607 147.92 508.277 148.22 507.877 148.36C507.477 148.52 507.087 148.55 506.707 148.45C506.327 148.35 505.997 148.16 505.717 147.88C505.437 147.6 505.267 147.25 505.207 146.83C505.147 146.41 505.247 145.97 505.507 145.51L516.007 127.42C516.287 126.94 516.617 126.63 516.997 126.49C517.377 126.33 517.757 126.3 518.137 126.4C518.537 126.5 518.867 126.7 519.127 127C519.407 127.28 519.577 127.63 519.637 128.05C519.717 128.45 519.617 128.88 519.337 129.34L508.867 147.46ZM504.517 139.45C502.717 139.45 501.317 138.86 500.317 137.68C499.337 136.48 498.847 134.9 498.847 132.94C498.847 131.62 499.077 130.48 499.537 129.52C499.997 128.56 500.647 127.82 501.487 127.3C502.327 126.78 503.337 126.52 504.517 126.52C506.297 126.52 507.677 127.11 508.657 128.29C509.657 129.45 510.157 131 510.157 132.94C510.157 134.24 509.927 135.38 509.467 136.36C509.027 137.34 508.387 138.1 507.547 138.64C506.707 139.18 505.697 139.45 504.517 139.45ZM504.517 136.15C504.817 136.15 505.067 136.05 505.267 135.85C505.487 135.63 505.647 135.29 505.747 134.83C505.867 134.35 505.927 133.72 505.927 132.94C505.927 131.76 505.797 130.94 505.537 130.48C505.297 130.02 504.957 129.79 504.517 129.79C504.197 129.79 503.927 129.89 503.707 130.09C503.507 130.27 503.347 130.59 503.227 131.05C503.127 131.51 503.077 132.14 503.077 132.94C503.077 134.14 503.197 134.98 503.437 135.46C503.677 135.92 504.037 136.15 504.517 136.15ZM520.357 148.33C518.577 148.33 517.187 147.74 516.187 146.56C515.207 145.38 514.717 143.81 514.717 141.85C514.717 140.51 514.937 139.36 515.377 138.4C515.837 137.44 516.487 136.7 517.327 136.18C518.187 135.66 519.197 135.4 520.357 135.4C522.137 135.4 523.527 135.99 524.527 137.17C525.527 138.35 526.027 139.91 526.027 141.85C526.027 143.15 525.797 144.29 525.337 145.27C524.897 146.23 524.257 146.98 523.417 147.52C522.577 148.06 521.557 148.33 520.357 148.33ZM520.357 145.06C520.677 145.06 520.937 144.96 521.137 144.76C521.357 144.54 521.517 144.2 521.617 143.74C521.737 143.26 521.797 142.63 521.797 141.85C521.797 140.67 521.667 139.85 521.407 139.39C521.167 138.93 520.817 138.7 520.357 138.7C520.057 138.7 519.797 138.8 519.577 139C519.377 139.18 519.217 139.5 519.097 139.96C518.997 140.4 518.947 141.03 518.947 141.85C518.947 143.05 519.067 143.89 519.307 144.37C519.547 144.83 519.897 145.06 520.357 145.06Z" fill="#242331"/>
<path d="M464.264 113V98.4545H467.339V104.456H473.582V98.4545H476.651V113H473.582V106.991H467.339V113H464.264ZM483.801 113.213C482.679 113.213 481.713 112.986 480.903 112.531C480.098 112.072 479.478 111.423 479.042 110.585C478.607 109.742 478.389 108.746 478.389 107.595C478.389 106.473 478.607 105.488 479.042 104.641C479.478 103.793 480.091 103.133 480.882 102.659C481.677 102.186 482.61 101.949 483.68 101.949C484.4 101.949 485.07 102.065 485.69 102.297C486.315 102.524 486.86 102.867 487.324 103.327C487.792 103.786 488.157 104.364 488.417 105.06C488.678 105.751 488.808 106.561 488.808 107.489V108.32H479.596V106.445H485.96C485.96 106.009 485.865 105.623 485.676 105.287C485.486 104.951 485.224 104.688 484.887 104.499C484.556 104.304 484.17 104.207 483.73 104.207C483.271 104.207 482.863 104.314 482.508 104.527C482.158 104.735 481.883 105.017 481.684 105.372C481.486 105.723 481.384 106.113 481.379 106.544V108.327C481.379 108.866 481.478 109.333 481.677 109.726C481.881 110.119 482.167 110.422 482.537 110.635C482.906 110.848 483.344 110.955 483.851 110.955C484.187 110.955 484.495 110.907 484.774 110.812C485.053 110.718 485.292 110.576 485.491 110.386C485.69 110.197 485.842 109.965 485.946 109.69L488.744 109.875C488.602 110.547 488.311 111.134 487.87 111.636C487.435 112.134 486.871 112.522 486.18 112.801C485.494 113.076 484.7 113.213 483.801 113.213ZM493.373 109.009L497.301 102.091H500.284V113H497.4V106.061L493.487 113H490.482V102.091H493.373V109.009ZM496.782 98.2841H498.891C498.887 99.1458 498.567 99.8395 497.933 100.365C497.303 100.891 496.451 101.153 495.376 101.153C494.296 101.153 493.442 100.891 492.812 100.365C492.182 99.8395 491.867 99.1458 491.867 98.2841H493.962C493.958 98.6108 494.062 98.9044 494.275 99.1648C494.493 99.4252 494.86 99.5554 495.376 99.5554C495.878 99.5554 496.238 99.4276 496.455 99.1719C496.673 98.9162 496.782 98.6203 496.782 98.2841ZM501.313 104.47V102.091H511.2V104.47H507.684V113H504.801V104.47H501.313ZM512.734 117.091V102.091H515.717V103.923H515.852C515.984 103.63 516.176 103.331 516.427 103.028C516.683 102.721 517.014 102.465 517.421 102.261C517.833 102.053 518.345 101.949 518.956 101.949C519.751 101.949 520.485 102.157 521.157 102.574C521.83 102.986 522.367 103.608 522.769 104.442C523.172 105.27 523.373 106.31 523.373 107.56C523.373 108.777 523.177 109.804 522.784 110.642C522.395 111.475 521.865 112.107 521.193 112.538C520.525 112.964 519.777 113.178 518.948 113.178C518.361 113.178 517.862 113.08 517.45 112.886C517.043 112.692 516.709 112.448 516.448 112.155C516.188 111.857 515.989 111.556 515.852 111.253H515.76V117.091H512.734ZM515.696 107.545C515.696 108.194 515.786 108.76 515.965 109.243C516.145 109.726 516.406 110.102 516.747 110.372C517.088 110.637 517.502 110.77 517.99 110.77C518.482 110.77 518.899 110.635 519.24 110.365C519.581 110.09 519.839 109.712 520.014 109.229C520.194 108.741 520.284 108.18 520.284 107.545C520.284 106.916 520.196 106.362 520.021 105.884C519.846 105.405 519.588 105.031 519.247 104.761C518.906 104.491 518.487 104.357 517.99 104.357C517.497 104.357 517.081 104.487 516.74 104.747C516.403 105.008 516.145 105.377 515.965 105.855C515.786 106.333 515.696 106.897 515.696 107.545ZM528.201 113.206C527.505 113.206 526.885 113.085 526.34 112.844C525.796 112.598 525.365 112.235 525.048 111.757C524.735 111.274 524.579 110.673 524.579 109.953C524.579 109.347 524.69 108.838 524.913 108.426C525.135 108.014 525.438 107.683 525.822 107.432C526.205 107.181 526.641 106.991 527.129 106.864C527.621 106.736 528.137 106.646 528.677 106.594C529.311 106.527 529.823 106.466 530.211 106.409C530.599 106.348 530.881 106.258 531.056 106.139C531.231 106.021 531.319 105.846 531.319 105.614V105.571C531.319 105.121 531.177 104.773 530.893 104.527C530.613 104.281 530.216 104.158 529.7 104.158C529.155 104.158 528.722 104.278 528.4 104.52C528.078 104.757 527.865 105.055 527.761 105.415L524.962 105.188C525.104 104.525 525.384 103.952 525.8 103.469C526.217 102.981 526.754 102.607 527.413 102.347C528.076 102.081 528.843 101.949 529.714 101.949C530.32 101.949 530.9 102.02 531.454 102.162C532.013 102.304 532.507 102.524 532.938 102.822C533.374 103.121 533.717 103.504 533.968 103.973C534.219 104.437 534.344 104.993 534.344 105.642V113H531.475V111.487H531.39C531.215 111.828 530.98 112.129 530.687 112.389C530.393 112.645 530.04 112.846 529.629 112.993C529.217 113.135 528.741 113.206 528.201 113.206ZM529.067 111.118C529.513 111.118 529.906 111.03 530.246 110.855C530.587 110.675 530.855 110.434 531.049 110.131C531.243 109.828 531.34 109.484 531.34 109.101V107.943C531.246 108.005 531.115 108.062 530.95 108.114C530.789 108.161 530.606 108.206 530.403 108.249C530.199 108.286 529.996 108.322 529.792 108.355C529.588 108.384 529.404 108.41 529.238 108.433C528.883 108.485 528.573 108.568 528.308 108.682C528.042 108.795 527.836 108.949 527.69 109.143C527.543 109.333 527.469 109.57 527.469 109.854C527.469 110.266 527.619 110.58 527.917 110.798C528.22 111.011 528.603 111.118 529.067 111.118ZM535.753 113L535.738 110.599H536.101C536.356 110.599 536.576 110.538 536.761 110.415C536.95 110.287 537.107 110.081 537.23 109.797C537.353 109.513 537.45 109.136 537.521 108.668C537.592 108.194 537.639 107.612 537.663 106.92L537.841 102.091H546.136V113H543.253V104.47H540.561L540.39 107.801C540.348 108.715 540.236 109.501 540.057 110.159C539.881 110.817 539.637 111.357 539.325 111.778C539.012 112.195 538.636 112.503 538.196 112.702C537.755 112.901 537.244 113 536.662 113H535.753ZM550.078 105.443H553.338C554.782 105.443 555.909 105.789 556.719 106.48C557.528 107.167 557.933 108.085 557.933 109.236C557.933 109.984 557.751 110.642 557.386 111.21C557.022 111.774 556.496 112.214 555.809 112.531C555.123 112.844 554.299 113 553.338 113H548.182V102.091H551.072V110.621H553.338C553.844 110.621 554.261 110.493 554.588 110.237C554.915 109.982 555.08 109.655 555.085 109.257C555.08 108.836 554.915 108.492 554.588 108.227C554.261 107.957 553.844 107.822 553.338 107.822H550.078V105.443ZM567.232 106.338V108.717H561.536V106.338H567.232ZM562.53 102.091V113H559.639V102.091H562.53ZM569.128 102.091V113H566.259V102.091H569.128ZM576.104 113.213C575.001 113.213 574.047 112.979 573.242 112.51C572.442 112.036 571.824 111.378 571.388 110.536C570.953 109.688 570.735 108.705 570.735 107.588C570.735 106.461 570.953 105.476 571.388 104.634C571.824 103.786 572.442 103.128 573.242 102.659C574.047 102.186 575.001 101.949 576.104 101.949C577.208 101.949 578.159 102.186 578.959 102.659C579.764 103.128 580.385 103.786 580.82 104.634C581.256 105.476 581.474 106.461 581.474 107.588C581.474 108.705 581.256 109.688 580.82 110.536C580.385 111.378 579.764 112.036 578.959 112.51C578.159 112.979 577.208 113.213 576.104 113.213ZM576.119 110.869C576.62 110.869 577.039 110.727 577.376 110.443C577.712 110.154 577.965 109.761 578.136 109.264C578.311 108.767 578.398 108.201 578.398 107.567C578.398 106.932 578.311 106.366 578.136 105.869C577.965 105.372 577.712 104.979 577.376 104.69C577.039 104.402 576.62 104.257 576.119 104.257C575.612 104.257 575.186 104.402 574.84 104.69C574.499 104.979 574.241 105.372 574.066 105.869C573.896 106.366 573.81 106.932 573.81 107.567C573.81 108.201 573.896 108.767 574.066 109.264C574.241 109.761 574.499 110.154 574.84 110.443C575.186 110.727 575.612 110.869 576.119 110.869Z" fill="#BDBDBD"/>
<circle cx="444" cy="105" r="6" fill="white" stroke="#005CE8" stroke-width="4"/>
<path d="M281.514 131.816V189.565C323.915 189.565 358.319 223.964 358.319 266.422C358.319 308.851 323.943 343.279 281.514 343.279C239.085 343.279 204.71 308.88 204.71 266.422C204.71 250.105 209.832 235.013 218.483 222.569H218.454L166.35 196.827C154.057 217.13 147 240.936 147 266.394C147 340.716 207.214 401 281.514 401C355.786 401 416.028 340.745 416.028 266.394C416 192.071 355.786 131.816 281.514 131.816Z" fill="#005CE8"/>
<path d="M154.883 176.011L206.987 201.725H207.015C220.902 181.791 243.923 168.721 270.047 168.721V111C221.215 111 178.445 137.056 154.883 176.011Z" fill="#EE2A2A"/>
<path d="M416 266.394C416 241.876 409.427 218.896 397.959 199.105H318.565C342.241 212.204 358.319 237.405 358.319 266.394C358.319 308.823 323.943 343.251 281.515 343.251V401C355.786 401 416 340.745 416 266.394Z" fill="#0FAF62"/>
<path d="M281.515 131.816V189.565C323.915 189.565 358.319 223.964 358.319 266.422H416.029C416 192.071 355.786 131.816 281.515 131.816Z" fill="#0FAF62"/>
<path d="M251.285 262.22C249.858 262.22 248.605 261.92 247.525 261.32C246.445 260.707 245.605 259.853 245.005 258.76C244.418 257.667 244.125 256.393 244.125 254.94C244.125 253.847 244.292 252.853 244.625 251.96C244.972 251.067 245.458 250.3 246.085 249.66C246.725 249.02 247.485 248.533 248.365 248.2C249.245 247.853 250.218 247.68 251.285 247.68C252.712 247.68 253.958 247.98 255.025 248.58C256.105 249.18 256.945 250.027 257.545 251.12C258.145 252.2 258.445 253.473 258.445 254.94C258.445 256.033 258.272 257.027 257.925 257.92C257.592 258.813 257.105 259.587 256.465 260.24C255.838 260.88 255.085 261.373 254.205 261.72C253.325 262.053 252.352 262.22 251.285 262.22ZM251.285 259.14C251.992 259.14 252.592 258.973 253.085 258.64C253.578 258.307 253.958 257.827 254.225 257.2C254.492 256.573 254.625 255.82 254.625 254.94C254.625 253.62 254.332 252.593 253.745 251.86C253.158 251.127 252.338 250.76 251.285 250.76C250.592 250.76 249.992 250.927 249.485 251.26C248.992 251.58 248.612 252.053 248.345 252.68C248.078 253.293 247.945 254.047 247.945 254.94C247.945 256.26 248.238 257.293 248.825 258.04C249.412 258.773 250.232 259.14 251.285 259.14ZM265.678 262.22C264.545 262.22 263.558 262.007 262.718 261.58C261.878 261.14 261.231 260.487 260.778 259.62C260.325 258.753 260.098 257.667 260.098 256.36V254.98C260.098 253.633 260.318 252.5 260.758 251.58C261.211 250.66 261.871 249.927 262.738 249.38C263.618 248.82 264.705 248.413 265.998 248.16L268.178 247.7C268.658 247.593 269.065 247.633 269.398 247.82C269.731 248.007 269.945 248.333 270.038 248.8C270.131 249.267 270.058 249.653 269.818 249.96C269.578 250.253 269.211 250.447 268.718 250.54L266.278 251.04C265.665 251.16 265.145 251.353 264.718 251.62C264.305 251.887 263.985 252.233 263.758 252.66C263.545 253.087 263.438 253.587 263.438 254.16V255.58H262.978C263.085 255.02 263.291 254.5 263.598 254.02C263.905 253.54 264.318 253.16 264.838 252.88C265.371 252.587 266.025 252.44 266.798 252.44C267.585 252.44 268.291 252.633 268.918 253.02C269.545 253.393 270.038 253.933 270.398 254.64C270.771 255.333 270.958 256.173 270.958 257.16C270.958 258.2 270.738 259.1 270.298 259.86C269.858 260.607 269.238 261.187 268.438 261.6C267.651 262.013 266.731 262.22 265.678 262.22ZM265.538 259.6C265.951 259.6 266.291 259.513 266.558 259.34C266.825 259.167 267.025 258.913 267.158 258.58C267.305 258.247 267.378 257.833 267.378 257.34C267.378 256.593 267.218 256.027 266.898 255.64C266.591 255.253 266.138 255.06 265.538 255.06C265.138 255.06 264.798 255.147 264.518 255.32C264.238 255.493 264.025 255.747 263.878 256.08C263.745 256.413 263.678 256.82 263.678 257.3C263.678 258.06 263.838 258.633 264.158 259.02C264.478 259.407 264.938 259.6 265.538 259.6ZM288.101 264.78C287.621 264.78 287.247 264.647 286.981 264.38C286.727 264.113 286.601 263.733 286.601 263.24V262H274.641C274.081 262 273.654 261.853 273.361 261.56C273.067 261.267 272.921 260.84 272.921 260.28V253.76C272.921 253.173 273.067 252.733 273.361 252.44C273.654 252.133 274.061 251.98 274.581 251.98C275.127 251.98 275.541 252.133 275.821 252.44C276.101 252.733 276.241 253.173 276.241 253.76V259.28H278.781V253.76C278.781 253.173 278.921 252.733 279.201 252.44C279.494 252.133 279.907 251.98 280.441 251.98C280.974 251.98 281.381 252.133 281.661 252.44C281.941 252.733 282.081 253.173 282.081 253.76V259.28H284.621V253.76C284.621 253.173 284.767 252.733 285.061 252.44C285.354 252.133 285.761 251.98 286.281 251.98C286.827 251.98 287.241 252.133 287.521 252.44C287.801 252.733 287.941 253.173 287.941 253.76V260.94L286.281 259.28H288.041C288.547 259.28 288.934 259.413 289.201 259.68C289.467 259.947 289.601 260.333 289.601 260.84V263.24C289.601 264.267 289.101 264.78 288.101 264.78ZM296.445 262.22C295.245 262.22 294.205 262.013 293.325 261.6C292.459 261.173 291.792 260.573 291.325 259.8C290.859 259.027 290.625 258.113 290.625 257.06C290.625 256.047 290.845 255.16 291.285 254.4C291.739 253.627 292.352 253.027 293.125 252.6C293.912 252.16 294.805 251.94 295.805 251.94C296.539 251.94 297.205 252.06 297.805 252.3C298.405 252.527 298.919 252.867 299.345 253.32C299.772 253.76 300.092 254.293 300.305 254.92C300.532 255.547 300.645 256.247 300.645 257.02C300.645 257.287 300.572 257.487 300.425 257.62C300.279 257.74 300.045 257.8 299.725 257.8H293.605V256.12H298.045L297.725 256.38C297.725 255.887 297.659 255.487 297.525 255.18C297.392 254.873 297.192 254.64 296.925 254.48C296.672 254.32 296.352 254.24 295.965 254.24C295.552 254.24 295.192 254.34 294.885 254.54C294.592 254.727 294.365 255.007 294.205 255.38C294.045 255.753 293.965 256.22 293.965 256.78V256.96C293.965 257.907 294.172 258.587 294.585 259C295.012 259.4 295.665 259.6 296.545 259.6C296.839 259.6 297.172 259.567 297.545 259.5C297.932 259.42 298.299 259.313 298.645 259.18C298.992 259.047 299.292 259.027 299.545 259.12C299.799 259.2 299.992 259.347 300.125 259.56C300.272 259.76 300.352 259.993 300.365 260.26C300.379 260.513 300.319 260.767 300.185 261.02C300.052 261.26 299.832 261.447 299.525 261.58C299.059 261.793 298.559 261.953 298.025 262.06C297.505 262.167 296.979 262.22 296.445 262.22ZM307.91 262.22C306.71 262.22 305.67 262.013 304.79 261.6C303.923 261.173 303.257 260.573 302.79 259.8C302.323 259.027 302.09 258.113 302.09 257.06C302.09 256.047 302.31 255.16 302.75 254.4C303.203 253.627 303.817 253.027 304.59 252.6C305.377 252.16 306.27 251.94 307.27 251.94C308.003 251.94 308.67 252.06 309.27 252.3C309.87 252.527 310.383 252.867 310.81 253.32C311.237 253.76 311.557 254.293 311.77 254.92C311.997 255.547 312.11 256.247 312.11 257.02C312.11 257.287 312.037 257.487 311.89 257.62C311.743 257.74 311.51 257.8 311.19 257.8H305.07V256.12H309.51L309.19 256.38C309.19 255.887 309.123 255.487 308.99 255.18C308.857 254.873 308.657 254.64 308.39 254.48C308.137 254.32 307.817 254.24 307.43 254.24C307.017 254.24 306.657 254.34 306.35 254.54C306.057 254.727 305.83 255.007 305.67 255.38C305.51 255.753 305.43 256.22 305.43 256.78V256.96C305.43 257.907 305.637 258.587 306.05 259C306.477 259.4 307.13 259.6 308.01 259.6C308.303 259.6 308.637 259.567 309.01 259.5C309.397 259.42 309.763 259.313 310.11 259.18C310.457 259.047 310.757 259.027 311.01 259.12C311.263 259.2 311.457 259.347 311.59 259.56C311.737 259.76 311.817 259.993 311.83 260.26C311.843 260.513 311.783 260.767 311.65 261.02C311.517 261.26 311.297 261.447 310.99 261.58C310.523 261.793 310.023 261.953 309.49 262.06C308.97 262.167 308.443 262.22 307.91 262.22ZM253.513 289C253.02 289 252.64 288.873 252.373 288.62C252.12 288.353 251.993 287.98 251.993 287.5C251.993 287.02 252.12 286.653 252.373 286.4C252.64 286.147 253.02 286.02 253.513 286.02H255.313V277.84H256.993L254.093 279.62C253.746 279.833 253.42 279.92 253.113 279.88C252.806 279.827 252.546 279.693 252.333 279.48C252.12 279.267 251.98 279.007 251.913 278.7C251.846 278.393 251.873 278.087 251.993 277.78C252.113 277.473 252.353 277.213 252.713 277L255.473 275.28C255.766 275.093 256.066 274.953 256.373 274.86C256.693 274.767 257.026 274.72 257.373 274.72C257.88 274.72 258.273 274.853 258.553 275.12C258.833 275.373 258.973 275.747 258.973 276.24V286.02H260.573C261.066 286.02 261.44 286.147 261.693 286.4C261.96 286.653 262.093 287.02 262.093 287.5C262.093 287.98 261.96 288.353 261.693 288.62C261.44 288.873 261.066 289 260.573 289H253.513ZM268.365 289.22C266.632 289.22 265.299 288.587 264.365 287.32C263.445 286.04 262.985 284.233 262.985 281.9C262.985 280.327 263.192 279.007 263.605 277.94C264.019 276.86 264.625 276.047 265.425 275.5C266.225 274.953 267.205 274.68 268.365 274.68C270.112 274.68 271.445 275.293 272.365 276.52C273.285 277.747 273.745 279.533 273.745 281.88C273.745 283.44 273.539 284.767 273.125 285.86C272.712 286.953 272.105 287.787 271.305 288.36C270.505 288.933 269.525 289.22 268.365 289.22ZM268.365 286.3C269.005 286.3 269.479 285.953 269.785 285.26C270.105 284.553 270.265 283.427 270.265 281.88C270.265 280.347 270.105 279.253 269.785 278.6C269.479 277.933 269.005 277.6 268.365 277.6C267.725 277.6 267.245 277.933 266.925 278.6C266.619 279.253 266.465 280.347 266.465 281.88C266.465 283.427 266.619 284.553 266.925 285.26C267.245 285.953 267.725 286.3 268.365 286.3ZM280.357 289.22C278.624 289.22 277.291 288.587 276.357 287.32C275.437 286.04 274.977 284.233 274.977 281.9C274.977 280.327 275.184 279.007 275.597 277.94C276.011 276.86 276.617 276.047 277.417 275.5C278.217 274.953 279.197 274.68 280.357 274.68C282.104 274.68 283.437 275.293 284.357 276.52C285.277 277.747 285.737 279.533 285.737 281.88C285.737 283.44 285.531 284.767 285.117 285.86C284.704 286.953 284.097 287.787 283.297 288.36C282.497 288.933 281.517 289.22 280.357 289.22ZM280.357 286.3C280.997 286.3 281.471 285.953 281.777 285.26C282.097 284.553 282.257 283.427 282.257 281.88C282.257 280.347 282.097 279.253 281.777 278.6C281.471 277.933 280.997 277.6 280.357 277.6C279.717 277.6 279.237 277.933 278.917 278.6C278.611 279.253 278.457 280.347 278.457 281.88C278.457 283.427 278.611 284.553 278.917 285.26C279.237 285.953 279.717 286.3 280.357 286.3ZM293.61 288.64C293.436 288.947 293.216 289.147 292.95 289.24C292.683 289.347 292.423 289.367 292.17 289.3C291.916 289.233 291.696 289.107 291.51 288.92C291.323 288.733 291.21 288.5 291.17 288.22C291.13 287.94 291.196 287.647 291.37 287.34L298.37 275.28C298.556 274.96 298.776 274.753 299.03 274.66C299.283 274.553 299.536 274.533 299.79 274.6C300.056 274.667 300.276 274.8 300.45 275C300.636 275.187 300.75 275.42 300.79 275.7C300.843 275.967 300.776 276.253 300.59 276.56L293.61 288.64ZM290.71 283.3C289.51 283.3 288.576 282.907 287.91 282.12C287.256 281.32 286.93 280.267 286.93 278.96C286.93 278.08 287.083 277.32 287.39 276.68C287.696 276.04 288.13 275.547 288.69 275.2C289.25 274.853 289.923 274.68 290.71 274.68C291.896 274.68 292.816 275.073 293.47 275.86C294.136 276.633 294.47 277.667 294.47 278.96C294.47 279.827 294.316 280.587 294.01 281.24C293.716 281.893 293.29 282.4 292.73 282.76C292.17 283.12 291.496 283.3 290.71 283.3ZM290.71 281.1C290.91 281.1 291.076 281.033 291.21 280.9C291.356 280.753 291.463 280.527 291.53 280.22C291.61 279.9 291.65 279.48 291.65 278.96C291.65 278.173 291.563 277.627 291.39 277.32C291.23 277.013 291.003 276.86 290.71 276.86C290.496 276.86 290.316 276.927 290.17 277.06C290.036 277.18 289.93 277.393 289.85 277.7C289.783 278.007 289.75 278.427 289.75 278.96C289.75 279.76 289.83 280.32 289.99 280.64C290.15 280.947 290.39 281.1 290.71 281.1ZM301.27 289.22C300.083 289.22 299.156 288.827 298.49 288.04C297.836 287.253 297.51 286.207 297.51 284.9C297.51 284.007 297.656 283.24 297.95 282.6C298.256 281.96 298.69 281.467 299.25 281.12C299.823 280.773 300.496 280.6 301.27 280.6C302.456 280.6 303.383 280.993 304.05 281.78C304.716 282.567 305.05 283.607 305.05 284.9C305.05 285.767 304.896 286.527 304.59 287.18C304.296 287.82 303.87 288.32 303.31 288.68C302.75 289.04 302.07 289.22 301.27 289.22ZM301.27 287.04C301.483 287.04 301.656 286.973 301.79 286.84C301.936 286.693 302.043 286.467 302.11 286.16C302.19 285.84 302.23 285.42 302.23 284.9C302.23 284.113 302.143 283.567 301.97 283.26C301.81 282.953 301.576 282.8 301.27 282.8C301.07 282.8 300.896 282.867 300.75 283C300.616 283.12 300.51 283.333 300.43 283.64C300.363 283.933 300.33 284.353 300.33 284.9C300.33 285.7 300.41 286.26 300.57 286.58C300.73 286.887 300.963 287.04 301.27 287.04Z" fill="#242331"/>
<g clip-path="url(#clip0_3731_1288)">
<path d="M621.75 54.3332C623.309 54.3332 624.584 53.0582 624.584 51.4998C624.584 49.9415 623.309 48.6665 621.75 48.6665C620.192 48.6665 618.917 49.9415 618.917 51.4998C618.917 53.0582 620.192 54.3332 621.75 54.3332ZM621.75 57.1665C620.192 57.1665 618.917 58.4415 618.917 59.9998C618.917 61.5582 620.192 62.8332 621.75 62.8332C623.309 62.8332 624.584 61.5582 624.584 59.9998C624.584 58.4415 623.309 57.1665 621.75 57.1665ZM621.75 65.6665C620.192 65.6665 618.917 66.9415 618.917 68.4998C618.917 70.0582 620.192 71.3332 621.75 71.3332C623.309 71.3332 624.584 70.0582 624.584 68.4998C624.584 66.9415 623.309 65.6665 621.75 65.6665Z" fill="#BDBDBD"/>
</g>
<path d="M585.667 60V69.9167H565.833V60H563V69.9167C563 71.475 564.275 72.75 565.833 72.75H585.667C587.225 72.75 588.5 71.475 588.5 69.9167V60H585.667ZM577.167 60.9492L580.836 57.2942L582.833 59.2917L575.75 66.375L568.667 59.2917L570.664 57.2942L574.333 60.9492V47.25H577.167V60.9492Z" fill="#BDBDBD"/>
<path d="M105.144 55.296V52.2H117.624V55.296H113.088V69H109.656V55.296H105.144ZM117.927 64.176V62.256H124.527C124.463 61.776 124.335 61.36 124.143 61.008C123.951 60.656 123.687 60.384 123.351 60.192C123.015 60 122.591 59.904 122.079 59.904C121.551 59.904 121.079 60.024 120.663 60.264C120.247 60.488 119.919 60.824 119.679 61.272C119.439 61.72 119.319 62.248 119.319 62.856L119.271 63.48C119.271 64.264 119.391 64.912 119.631 65.424C119.887 65.92 120.231 66.288 120.663 66.528C121.095 66.752 121.583 66.864 122.127 66.864C122.607 66.864 123.031 66.8 123.399 66.672C123.767 66.544 124.095 66.36 124.383 66.12C124.671 65.88 124.911 65.6 125.103 65.28L127.815 66.12C127.447 66.744 127.015 67.296 126.519 67.776C126.023 68.24 125.415 68.6 124.695 68.856C123.991 69.112 123.127 69.24 122.103 69.24C120.871 69.24 119.807 68.992 118.911 68.496C118.015 68 117.327 67.32 116.847 66.456C116.383 65.576 116.151 64.584 116.151 63.48C116.151 63.272 116.159 63.072 116.175 62.88C116.191 62.688 116.215 62.496 116.247 62.304C116.407 61.392 116.735 60.592 117.231 59.904C117.727 59.216 118.391 58.68 119.223 58.296C120.055 57.912 121.023 57.72 122.127 57.72C123.343 57.72 124.375 57.952 125.223 58.416C126.087 58.864 126.743 59.504 127.191 60.336C127.639 61.168 127.863 62.168 127.863 63.336C127.863 63.432 127.863 63.552 127.863 63.696C127.863 63.84 127.847 64 127.815 64.176H117.927ZM140.791 69L139.207 61.056L140.791 57.12L143.983 69H140.791ZM135.655 66.312L140.791 57.12L141.031 61.68L136.375 69.744L135.655 66.312ZM136.375 69.744L131.791 61.68L132.031 57.12L137.095 66.312L136.375 69.744ZM128.839 69L132.031 57.12L133.615 61.056L132.031 69H128.839ZM147.838 65.712C147.838 66.016 147.918 66.272 148.078 66.48C148.238 66.672 148.454 66.824 148.726 66.936C149.014 67.032 149.326 67.08 149.662 67.08C150.158 67.08 150.614 67 151.03 66.84C151.446 66.68 151.774 66.416 152.014 66.048C152.254 65.68 152.374 65.192 152.374 64.584L152.758 65.88C152.758 66.584 152.574 67.192 152.206 67.704C151.838 68.2 151.342 68.584 150.718 68.856C150.11 69.112 149.422 69.24 148.654 69.24C147.902 69.24 147.23 69.112 146.638 68.856C146.046 68.6 145.574 68.224 145.222 67.728C144.886 67.216 144.718 66.592 144.718 65.856C144.718 65.104 144.91 64.464 145.294 63.936C145.694 63.392 146.246 62.976 146.95 62.688C147.67 62.4 148.51 62.256 149.47 62.256C150.062 62.256 150.614 62.328 151.126 62.472C151.638 62.616 152.07 62.784 152.422 62.976C152.774 63.168 153.022 63.352 153.166 63.528V65.04C152.718 64.704 152.254 64.456 151.774 64.296C151.294 64.136 150.726 64.056 150.07 64.056C149.59 64.056 149.182 64.128 148.846 64.272C148.51 64.416 148.254 64.608 148.078 64.848C147.918 65.088 147.838 65.376 147.838 65.712ZM146.854 61.104L145.726 58.968C146.286 58.664 146.974 58.376 147.79 58.104C148.606 57.816 149.51 57.672 150.502 57.672C151.462 57.672 152.302 57.808 153.022 58.08C153.758 58.352 154.334 58.752 154.75 59.28C155.166 59.792 155.374 60.424 155.374 61.176V69H152.374V61.68C152.374 61.184 152.182 60.8 151.798 60.528C151.414 60.24 150.918 60.096 150.31 60.096C149.782 60.096 149.286 60.16 148.822 60.288C148.374 60.4 147.974 60.536 147.622 60.696C147.286 60.856 147.03 60.992 146.854 61.104Z" fill="#242331"/>
<rect y="308" width="374" height="186" rx="30" fill="white"/>
<rect x="20" y="328" width="334" height="146" rx="20" fill="#F7F7F7"/>
<path d="M221.936 405C216.449 405 211.916 400.522 212.821 395.109C213.957 388.313 216.259 381.738 219.65 375.683C224.666 366.726 231.897 359.206 240.65 353.842C249.403 348.478 259.386 345.449 269.644 345.046C279.902 344.643 290.092 346.879 299.239 351.54C308.386 356.2 316.185 363.13 321.888 371.666C327.592 380.202 331.01 390.058 331.815 400.292C332.62 410.527 330.787 420.797 326.489 430.12C323.583 436.422 319.617 442.149 314.787 447.063C310.939 450.976 304.652 449.942 301.427 445.503C298.201 441.063 299.31 434.908 302.824 430.693C305.069 427.999 306.961 425.011 308.442 421.8C311.316 415.565 312.543 408.696 312.004 401.852C311.465 395.007 309.179 388.415 305.365 382.706C301.551 376.997 296.335 372.363 290.218 369.246C284.1 366.129 277.285 364.634 270.425 364.903C263.564 365.173 256.887 367.198 251.033 370.785C245.179 374.373 240.343 379.402 236.989 385.393C235.261 388.478 233.956 391.765 233.096 395.165C231.751 400.485 227.424 405 221.936 405Z" fill="#005CE8"/>
<path d="M255.03 407.18C255.03 407.713 255.144 408.18 255.37 408.58C255.597 408.967 255.904 409.273 256.29 409.5C256.69 409.713 257.137 409.82 257.63 409.82C258.124 409.82 258.564 409.713 258.95 409.5C259.35 409.273 259.664 408.967 259.89 408.58C260.117 408.18 260.23 407.713 260.23 407.18C260.23 406.66 260.117 406.2 259.89 405.8C259.664 405.387 259.35 405.073 258.95 404.86C258.564 404.633 258.124 404.52 257.63 404.52C257.137 404.52 256.69 404.633 256.29 404.86C255.904 405.073 255.597 405.387 255.37 405.8C255.144 406.2 255.03 406.66 255.03 407.18ZM257.87 398.04H261.49L257.01 403.32L256.49 403.5C256.837 403.14 257.177 402.907 257.51 402.8C257.857 402.693 258.277 402.64 258.77 402.64C259.304 402.64 259.824 402.747 260.33 402.96C260.85 403.173 261.31 403.48 261.71 403.88C262.11 404.28 262.43 404.76 262.67 405.32C262.91 405.88 263.03 406.5 263.03 407.18C263.03 408.273 262.784 409.2 262.29 409.96C261.81 410.72 261.164 411.3 260.35 411.7C259.537 412.087 258.63 412.28 257.63 412.28C256.63 412.28 255.724 412.087 254.91 411.7C254.097 411.3 253.444 410.72 252.95 409.96C252.47 409.2 252.23 408.273 252.23 407.18C252.23 406.487 252.364 405.847 252.63 405.26C252.897 404.66 253.23 404.107 253.63 403.6L257.87 398.04ZM275.623 407.48C275.623 408.307 275.47 409.02 275.163 409.62C274.857 410.22 274.443 410.713 273.923 411.1C273.403 411.487 272.823 411.773 272.183 411.96C271.543 412.147 270.883 412.24 270.203 412.24C269.35 412.24 268.583 412.14 267.903 411.94C267.237 411.74 266.65 411.48 266.143 411.16C265.637 410.827 265.19 410.467 264.803 410.08L266.143 407.86C266.477 408.193 266.837 408.493 267.223 408.76C267.623 409.027 268.037 409.24 268.463 409.4C268.89 409.547 269.297 409.62 269.683 409.62C270.283 409.62 270.79 409.527 271.203 409.34C271.63 409.153 271.957 408.887 272.183 408.54C272.41 408.18 272.523 407.74 272.523 407.22C272.523 406.713 272.39 406.287 272.123 405.94C271.87 405.593 271.523 405.333 271.083 405.16C270.657 404.973 270.19 404.88 269.683 404.88C269.31 404.88 268.917 404.913 268.503 404.98C268.09 405.033 267.663 405.133 267.223 405.28C266.797 405.413 266.343 405.613 265.863 405.88L267.783 398H275.403V400.48H269.903L269.063 403.36C269.41 403.173 269.777 403.047 270.163 402.98C270.563 402.9 270.97 402.86 271.383 402.86C272.143 402.86 272.843 403.047 273.483 403.42C274.123 403.793 274.637 404.327 275.023 405.02C275.423 405.7 275.623 406.52 275.623 407.48ZM276.946 401.22C276.946 400.553 277.099 399.953 277.406 399.42C277.726 398.887 278.159 398.467 278.706 398.16C279.252 397.84 279.866 397.68 280.546 397.68C281.239 397.68 281.852 397.84 282.386 398.16C282.932 398.467 283.359 398.887 283.666 399.42C283.972 399.953 284.126 400.553 284.126 401.22C284.126 401.86 283.972 402.453 283.666 403C283.359 403.533 282.932 403.96 282.386 404.28C281.852 404.6 281.239 404.76 280.546 404.76C279.866 404.76 279.252 404.6 278.706 404.28C278.159 403.96 277.726 403.533 277.406 403C277.099 402.453 276.946 401.86 276.946 401.22ZM279.106 401.22C279.106 401.487 279.166 401.74 279.286 401.98C279.406 402.207 279.572 402.387 279.786 402.52C279.999 402.653 280.252 402.72 280.546 402.72C280.839 402.72 281.086 402.653 281.286 402.52C281.499 402.387 281.666 402.207 281.786 401.98C281.906 401.74 281.966 401.487 281.966 401.22C281.966 400.94 281.906 400.687 281.786 400.46C281.666 400.233 281.499 400.053 281.286 399.92C281.086 399.773 280.839 399.7 280.546 399.7C280.252 399.7 279.999 399.773 279.786 399.92C279.572 400.053 279.406 400.233 279.286 400.46C279.166 400.687 279.106 400.94 279.106 401.22ZM286.046 408.78C286.046 408.127 286.199 407.533 286.506 407C286.826 406.453 287.259 406.027 287.806 405.72C288.352 405.4 288.966 405.24 289.646 405.24C290.339 405.24 290.952 405.4 291.486 405.72C292.032 406.027 292.459 406.453 292.766 407C293.072 407.533 293.226 408.127 293.226 408.78C293.226 409.433 293.072 410.027 292.766 410.56C292.459 411.093 292.032 411.52 291.486 411.84C290.952 412.16 290.339 412.32 289.646 412.32C288.966 412.32 288.352 412.16 287.806 411.84C287.259 411.52 286.826 411.093 286.506 410.56C286.199 410.027 286.046 409.433 286.046 408.78ZM288.206 408.78C288.206 409.047 288.266 409.3 288.386 409.54C288.506 409.767 288.672 409.947 288.886 410.08C289.099 410.213 289.352 410.28 289.646 410.28C289.939 410.28 290.186 410.213 290.386 410.08C290.599 409.947 290.766 409.767 290.886 409.54C291.006 409.3 291.066 409.047 291.066 408.78C291.066 408.5 291.006 408.247 290.886 408.02C290.766 407.793 290.599 407.613 290.386 407.48C290.186 407.347 289.939 407.28 289.646 407.28C289.352 407.28 289.099 407.347 288.886 407.48C288.672 407.613 288.506 407.793 288.386 408.02C288.266 408.247 288.206 408.5 288.206 408.78ZM288.886 398H291.506L281.306 412H278.686L288.886 398Z" fill="#141414"/>
<path d="M56.32 444H64.864V442.24H60L63.184 439.12C63.6427 438.693 64.0107 438.208 64.288 437.664C64.576 437.12 64.72 436.555 64.72 435.968C64.72 435.595 64.64 435.211 64.48 434.816C64.3307 434.421 64.096 434.059 63.776 433.728C63.4667 433.397 63.072 433.131 62.592 432.928C62.112 432.715 61.5467 432.608 60.896 432.608C60.0427 432.608 59.3173 432.789 58.72 433.152C58.1333 433.504 57.6853 433.995 57.376 434.624C57.0773 435.243 56.928 435.952 56.928 436.752H58.8C58.8 436.261 58.88 435.829 59.04 435.456C59.2107 435.083 59.4507 434.8 59.76 434.608C60.0693 434.405 60.4373 434.304 60.864 434.304C61.1733 434.304 61.4453 434.357 61.68 434.464C61.9147 434.56 62.112 434.693 62.272 434.864C62.4427 435.035 62.5653 435.227 62.64 435.44C62.7253 435.643 62.768 435.851 62.768 436.064C62.768 436.363 62.72 436.645 62.624 436.912C62.528 437.179 62.384 437.445 62.192 437.712C62 437.979 61.7707 438.256 61.504 438.544L56.32 444ZM67.0003 443.184C67.0003 443.483 67.1069 443.744 67.3203 443.968C67.5443 444.192 67.8109 444.304 68.1203 444.304C68.4509 444.304 68.7229 444.192 68.9363 443.968C69.1496 443.744 69.2563 443.483 69.2563 443.184C69.2563 442.875 69.1496 442.613 68.9363 442.4C68.7229 442.176 68.4509 442.064 68.1203 442.064C67.8109 442.064 67.5443 442.176 67.3203 442.4C67.1069 442.613 67.0003 442.875 67.0003 443.184ZM71.8578 435.504C71.8578 435.973 71.9431 436.389 72.1138 436.752C72.2951 437.104 72.5404 437.403 72.8498 437.648C73.1591 437.893 73.5164 438.08 73.9218 438.208C74.3271 438.336 74.7591 438.4 75.2178 438.4C75.6764 438.4 76.1084 438.336 76.5138 438.208C76.9191 438.08 77.2764 437.893 77.5858 437.648C77.8951 437.403 78.1404 437.104 78.3218 436.752C78.5031 436.389 78.5938 435.973 78.5938 435.504C78.5938 434.928 78.4391 434.427 78.1298 434C77.8311 433.563 77.4258 433.221 76.9138 432.976C76.4124 432.731 75.8471 432.608 75.2178 432.608C74.5884 432.608 74.0178 432.731 73.5058 432.976C73.0044 433.221 72.6044 433.563 72.3058 434C72.0071 434.427 71.8578 434.928 71.8578 435.504ZM73.6498 435.696C73.6498 435.387 73.7138 435.109 73.8418 434.864C73.9804 434.619 74.1671 434.432 74.4018 434.304C74.6471 434.165 74.9191 434.096 75.2178 434.096C75.5271 434.096 75.7991 434.165 76.0338 434.304C76.2684 434.432 76.4498 434.619 76.5778 434.864C76.7164 435.109 76.7858 435.387 76.7858 435.696C76.7858 436.016 76.7164 436.293 76.5778 436.528C76.4391 436.763 76.2471 436.949 76.0018 437.088C75.7671 437.216 75.5058 437.28 75.2178 437.28C74.9298 437.28 74.6684 437.216 74.4338 437.088C74.1991 436.949 74.0071 436.763 73.8578 436.528C73.7191 436.293 73.6498 436.016 73.6498 435.696ZM71.4578 440.96C71.4578 441.429 71.5538 441.861 71.7458 442.256C71.9378 442.64 72.2044 442.981 72.5458 443.28C72.8978 443.568 73.2978 443.792 73.7458 443.952C74.2044 444.112 74.6951 444.192 75.2178 444.192C75.7404 444.192 76.2258 444.112 76.6738 443.952C77.1324 443.792 77.5324 443.568 77.8738 443.28C78.2258 442.981 78.4978 442.64 78.6898 442.256C78.8924 441.861 78.9938 441.429 78.9938 440.96C78.9938 440.416 78.8818 439.941 78.6578 439.536C78.4444 439.131 78.1564 438.795 77.7938 438.528C77.4311 438.251 77.0258 438.048 76.5778 437.92C76.1298 437.792 75.6764 437.728 75.2178 437.728C74.7591 437.728 74.3058 437.792 73.8578 437.92C73.4098 438.048 73.0044 438.251 72.6418 438.528C72.2791 438.795 71.9911 439.131 71.7778 439.536C71.5644 439.941 71.4578 440.416 71.4578 440.96ZM73.3138 440.704C73.3138 440.352 73.3991 440.032 73.5698 439.744C73.7511 439.456 73.9858 439.232 74.2738 439.072C74.5724 438.901 74.8871 438.816 75.2178 438.816C75.5484 438.816 75.8578 438.901 76.1458 439.072C76.4444 439.232 76.6844 439.456 76.8658 439.744C77.0471 440.032 77.1378 440.352 77.1378 440.704C77.1378 441.109 77.0471 441.456 76.8658 441.744C76.6844 442.021 76.4444 442.235 76.1458 442.384C75.8578 442.533 75.5484 442.608 75.2178 442.608C74.8871 442.608 74.5724 442.533 74.2738 442.384C73.9858 442.235 73.7511 442.021 73.5698 441.744C73.3991 441.456 73.3138 441.109 73.3138 440.704ZM80.3238 435.296C80.3238 435.797 80.4358 436.256 80.6598 436.672C80.8944 437.077 81.2198 437.403 81.6358 437.648C82.0518 437.893 82.5211 438.016 83.0438 438.016C83.5878 438.016 84.0624 437.893 84.4678 437.648C84.8838 437.403 85.2038 437.077 85.4278 436.672C85.6624 436.256 85.7798 435.797 85.7798 435.296C85.7798 434.795 85.6624 434.341 85.4278 433.936C85.2038 433.52 84.8838 433.189 84.4678 432.944C84.0624 432.699 83.5878 432.576 83.0438 432.576C82.5211 432.576 82.0518 432.699 81.6358 432.944C81.2198 433.189 80.8944 433.52 80.6598 433.936C80.4358 434.341 80.3238 434.795 80.3238 435.296ZM81.7958 435.296C81.7958 435.051 81.8491 434.827 81.9557 434.624C82.0624 434.421 82.2064 434.261 82.3878 434.144C82.5798 434.027 82.7984 433.968 83.0438 433.968C83.3104 433.968 83.5344 434.027 83.7158 434.144C83.8971 434.261 84.0411 434.421 84.1478 434.624C84.2544 434.827 84.3078 435.051 84.3078 435.296C84.3078 435.531 84.2544 435.755 84.1478 435.968C84.0411 436.171 83.8971 436.336 83.7158 436.464C83.5344 436.581 83.3104 436.64 83.0438 436.64C82.7984 436.64 82.5798 436.581 82.3878 436.464C82.2064 436.336 82.0624 436.171 81.9557 435.968C81.8491 435.755 81.7958 435.531 81.7958 435.296ZM86.9958 441.504C86.9958 441.995 87.1131 442.448 87.3478 442.864C87.5824 443.28 87.9024 443.611 88.3078 443.856C88.7238 444.091 89.1984 444.208 89.7318 444.208C90.2651 444.208 90.7344 444.091 91.1398 443.856C91.5558 443.611 91.8758 443.28 92.0998 442.864C92.3344 442.448 92.4518 441.995 92.4518 441.504C92.4518 440.992 92.3344 440.533 92.0998 440.128C91.8758 439.712 91.5558 439.387 91.1398 439.152C90.7344 438.907 90.2651 438.784 89.7318 438.784C89.1984 438.784 88.7238 438.907 88.3078 439.152C87.9024 439.387 87.5824 439.712 87.3478 440.128C87.1131 440.533 86.9958 440.992 86.9958 441.504ZM88.4838 441.488C88.4838 441.253 88.5318 441.035 88.6278 440.832C88.7344 440.629 88.8784 440.469 89.0598 440.352C89.2518 440.224 89.4758 440.16 89.7318 440.16C89.9878 440.16 90.2064 440.224 90.3878 440.352C90.5798 440.469 90.7238 440.629 90.8198 440.832C90.9264 441.035 90.9798 441.253 90.9798 441.488C90.9798 441.733 90.9264 441.957 90.8198 442.16C90.7238 442.363 90.5798 442.528 90.3878 442.656C90.2064 442.773 89.9878 442.832 89.7318 442.832C89.4758 442.832 89.2518 442.773 89.0598 442.656C88.8784 442.528 88.7344 442.363 88.6278 442.16C88.5318 441.947 88.4838 441.723 88.4838 441.488ZM89.4118 432.8L81.6518 444H83.3638L91.1238 432.8H89.4118Z" fill="#05A402"/>
<g clip-path="url(#clip1_3731_1288)">
<path d="M50.1963 441L48.7517 441.387L47.2134 435.666L42.6497 443.571L41.3506 442.821L45.9144 434.916L40.1938 436.455L39.804 435L48.0001 432.804L50.1963 441Z" fill="#05A402"/>
</g>
<path d="M39.69 402.76V398.89H55.11V402.76H39.69ZM52.38 391H56.67V412H52.38V391ZM38.28 391H42.57V412H38.28V391ZM62.1202 405.97V403.57H70.3702C70.2902 402.97 70.1302 402.45 69.8902 402.01C69.6502 401.57 69.3202 401.23 68.9002 400.99C68.4802 400.75 67.9502 400.63 67.3102 400.63C66.6502 400.63 66.0602 400.78 65.5402 401.08C65.0202 401.36 64.6102 401.78 64.3102 402.34C64.0102 402.9 63.8602 403.56 63.8602 404.32L63.8002 405.1C63.8002 406.08 63.9502 406.89 64.2502 407.53C64.5702 408.15 65.0002 408.61 65.5402 408.91C66.0802 409.19 66.6902 409.33 67.3702 409.33C67.9702 409.33 68.5002 409.25 68.9602 409.09C69.4202 408.93 69.8302 408.7 70.1902 408.4C70.5502 408.1 70.8502 407.75 71.0902 407.35L74.4802 408.4C74.0202 409.18 73.4802 409.87 72.8602 410.47C72.2402 411.05 71.4802 411.5 70.5802 411.82C69.7002 412.14 68.6202 412.3 67.3402 412.3C65.8002 412.3 64.4702 411.99 63.3502 411.37C62.2302 410.75 61.3702 409.9 60.7702 408.82C60.1902 407.72 59.9002 406.48 59.9002 405.1C59.9002 404.84 59.9102 404.59 59.9302 404.35C59.9502 404.11 59.9802 403.87 60.0202 403.63C60.2202 402.49 60.6302 401.49 61.2502 400.63C61.8702 399.77 62.7002 399.1 63.7402 398.62C64.7802 398.14 65.9902 397.9 67.3702 397.9C68.8902 397.9 70.1802 398.19 71.2402 398.77C72.3202 399.33 73.1402 400.13 73.7002 401.17C74.2602 402.21 74.5402 403.46 74.5402 404.92C74.5402 405.04 74.5402 405.19 74.5402 405.37C74.5402 405.55 74.5202 405.75 74.4802 405.97H62.1202ZM90.7594 401.62L77.6194 413.05L77.7694 408.58L90.9094 397.15L90.7594 401.62ZM81.3694 398.2V409.12L77.6194 413.05V398.2H81.3694ZM90.9094 397.15V412H87.1594V401.08L90.9094 397.15ZM79.5694 391.15H82.2694C82.2694 391.47 82.3494 391.78 82.5094 392.08C82.6694 392.36 82.9094 392.6 83.2294 392.8C83.5494 392.98 83.9494 393.07 84.4294 393.07C84.9294 393.07 85.3394 392.98 85.6594 392.8C85.9794 392.6 86.2094 392.36 86.3494 392.08C86.5094 391.78 86.5894 391.47 86.5894 391.15H89.3194C89.3194 391.91 89.1294 392.63 88.7494 393.31C88.3694 393.97 87.8194 394.5 87.0994 394.9C86.3794 395.28 85.4894 395.47 84.4294 395.47C83.3894 395.47 82.4994 395.28 81.7594 394.9C81.0394 394.5 80.4894 393.97 80.1094 393.31C79.7494 392.63 79.5694 391.91 79.5694 391.15ZM93.0738 398.2H102.254V401.47H93.0738V398.2ZM95.8038 398.8H99.5538V412H95.8038V398.8ZM108.146 418.6H104.246V398.2H108.146V418.6ZM119.486 405.1C119.486 406.66 119.176 407.99 118.556 409.09C117.936 410.19 117.116 411.02 116.096 411.58C115.096 412.14 114.016 412.42 112.856 412.42C111.676 412.42 110.646 412.12 109.766 411.52C108.906 410.92 108.236 410.07 107.756 408.97C107.296 407.87 107.066 406.58 107.066 405.1C107.066 403.6 107.296 402.31 107.756 401.23C108.236 400.13 108.906 399.28 109.766 398.68C110.646 398.08 111.676 397.78 112.856 397.78C114.016 397.78 115.096 398.06 116.096 398.62C117.116 399.18 117.936 400.01 118.556 401.11C119.176 402.19 119.486 403.52 119.486 405.1ZM115.466 405.1C115.466 404.28 115.296 403.58 114.956 403C114.616 402.42 114.156 401.98 113.576 401.68C113.016 401.38 112.396 401.23 111.716 401.23C111.136 401.23 110.566 401.38 110.006 401.68C109.466 401.96 109.016 402.39 108.656 402.97C108.316 403.55 108.146 404.26 108.146 405.1C108.146 405.94 108.316 406.65 108.656 407.23C109.016 407.81 109.466 408.25 110.006 408.55C110.566 408.83 111.136 408.97 111.716 408.97C112.396 408.97 113.016 408.82 113.576 408.52C114.156 408.22 114.616 407.78 114.956 407.2C115.296 406.62 115.466 405.92 115.466 405.1ZM125.143 407.89C125.143 408.27 125.243 408.59 125.443 408.85C125.643 409.09 125.913 409.28 126.253 409.42C126.613 409.54 127.003 409.6 127.423 409.6C128.043 409.6 128.613 409.5 129.133 409.3C129.653 409.1 130.063 408.77 130.363 408.31C130.663 407.85 130.813 407.24 130.813 406.48L131.293 408.1C131.293 408.98 131.063 409.74 130.603 410.38C130.143 411 129.523 411.48 128.743 411.82C127.983 412.14 127.123 412.3 126.163 412.3C125.223 412.3 124.383 412.14 123.643 411.82C122.903 411.5 122.313 411.03 121.873 410.41C121.453 409.77 121.243 408.99 121.243 408.07C121.243 407.13 121.483 406.33 121.963 405.67C122.463 404.99 123.153 404.47 124.033 404.11C124.933 403.75 125.983 403.57 127.183 403.57C127.923 403.57 128.613 403.66 129.253 403.84C129.893 404.02 130.433 404.23 130.873 404.47C131.313 404.71 131.623 404.94 131.803 405.16V407.05C131.243 406.63 130.663 406.32 130.063 406.12C129.463 405.92 128.753 405.82 127.933 405.82C127.333 405.82 126.823 405.91 126.403 406.09C125.983 406.27 125.663 406.51 125.443 406.81C125.243 407.11 125.143 407.47 125.143 407.89ZM123.913 402.13L122.503 399.46C123.203 399.08 124.063 398.72 125.083 398.38C126.103 398.02 127.233 397.84 128.473 397.84C129.673 397.84 130.723 398.01 131.623 398.35C132.543 398.69 133.263 399.19 133.783 399.85C134.303 400.49 134.563 401.28 134.563 402.22V412H130.813V402.85C130.813 402.23 130.573 401.75 130.093 401.41C129.613 401.05 128.993 400.87 128.233 400.87C127.573 400.87 126.953 400.95 126.373 401.11C125.813 401.25 125.313 401.42 124.873 401.62C124.453 401.82 124.133 401.99 123.913 402.13ZM151.944 398.2V412H148.194V401.74H142.494V407.2C142.494 408.28 142.304 409.18 141.924 409.9C141.544 410.6 140.914 411.13 140.034 411.49C139.174 411.83 138.014 412 136.554 412V408.52C137.154 408.52 137.664 408.39 138.084 408.13C138.524 407.85 138.744 407.28 138.744 406.42V398.2H151.944ZM156.4 398.2H160.27V412H156.4V398.2ZM159.28 405.7V403.03H163.57C164.99 403.03 166.18 403.38 167.14 404.08C168.12 404.76 168.61 405.84 168.61 407.32C168.61 408.3 168.39 409.15 167.95 409.87C167.51 410.57 166.91 411.1 166.15 411.46C165.39 411.82 164.53 412 163.57 412H159.28V408.94H163C163.42 408.94 163.77 408.88 164.05 408.76C164.33 408.62 164.54 408.43 164.68 408.19C164.84 407.95 164.92 407.66 164.92 407.32C164.92 406.82 164.76 406.43 164.44 406.15C164.12 405.85 163.64 405.7 163 405.7H159.28ZM173.451 406.24V403.21H184.311V406.24H173.451ZM182.421 398.2H186.171V412H182.421V398.2ZM172.041 398.2H175.791V412H172.041V398.2ZM189.07 405.1C189.07 403.66 189.4 402.4 190.06 401.32C190.74 400.24 191.65 399.4 192.79 398.8C193.95 398.2 195.26 397.9 196.72 397.9C198.18 397.9 199.48 398.2 200.62 398.8C201.78 399.4 202.69 400.24 203.35 401.32C204.03 402.4 204.37 403.66 204.37 405.1C204.37 406.52 204.03 407.78 203.35 408.88C202.69 409.96 201.78 410.8 200.62 411.4C199.48 412 198.18 412.3 196.72 412.3C195.26 412.3 193.95 412 192.79 411.4C191.65 410.8 190.74 409.96 190.06 408.88C189.4 407.78 189.07 406.52 189.07 405.1ZM193.03 405.1C193.03 405.88 193.19 406.57 193.51 407.17C193.85 407.75 194.3 408.21 194.86 408.55C195.42 408.87 196.04 409.03 196.72 409.03C197.4 409.03 198.02 408.87 198.58 408.55C199.14 408.21 199.58 407.75 199.9 407.17C200.24 406.57 200.41 405.88 200.41 405.1C200.41 404.32 200.24 403.63 199.9 403.03C199.58 402.43 199.14 401.97 198.58 401.65C198.02 401.33 197.4 401.17 196.72 401.17C196.04 401.17 195.42 401.33 194.86 401.65C194.3 401.97 193.85 402.43 193.51 403.03C193.19 403.63 193.03 404.32 193.03 405.1Z" fill="#3E3D49"/>
<path d="M42.04 372V359.72H37.64V358H48.26V359.72H43.88V372H42.04ZM52.8027 372.22C51.9227 372.22 51.136 372.007 50.4427 371.58C49.7627 371.153 49.2227 370.553 48.8227 369.78C48.436 369.007 48.2427 368.107 48.2427 367.08C48.2427 366.053 48.436 365.153 48.8227 364.38C49.2227 363.607 49.7627 363.007 50.4427 362.58C51.136 362.14 51.9227 361.92 52.8027 361.92C53.6827 361.92 54.4627 362.14 55.1427 362.58C55.836 363.007 56.376 363.607 56.7627 364.38C57.1627 365.153 57.3627 366.053 57.3627 367.08C57.3627 368.107 57.1627 369.007 56.7627 369.78C56.376 370.553 55.836 371.153 55.1427 371.58C54.4627 372.007 53.6827 372.22 52.8027 372.22ZM52.8027 370.52C53.616 370.52 54.276 370.213 54.7827 369.6C55.3027 368.987 55.5627 368.147 55.5627 367.08C55.5627 366 55.3027 365.153 54.7827 364.54C54.276 363.927 53.616 363.62 52.8027 363.62C51.9893 363.62 51.3227 363.927 50.8027 364.54C50.296 365.153 50.0427 366 50.0427 367.08C50.0427 368.147 50.296 368.987 50.8027 369.6C51.3227 370.213 51.9893 370.52 52.8027 370.52ZM59.2244 372V362.06H61.0044V366.02H65.1644V362.06H66.9444V372H65.1644V367.6H61.0044V372H59.2244ZM72.2341 372.16C71.2607 372.187 70.4541 371.967 69.8141 371.5C69.1874 371.02 68.8741 370.333 68.8741 369.44C68.8741 368.787 69.0807 368.22 69.4941 367.74C69.9207 367.26 70.4607 366.887 71.1141 366.62C71.7807 366.34 72.4674 366.2 73.1741 366.2C73.5874 366.173 73.9674 366.213 74.3141 366.32C74.6607 366.413 74.9607 366.553 75.2141 366.74V365.3C75.2141 364.553 75.0541 364.067 74.7341 363.84C74.4274 363.613 73.9474 363.5 73.2941 363.5C72.7341 363.5 72.1341 363.6 71.4941 363.8C70.8674 364 70.3341 364.253 69.8941 364.56L69.0541 363.16C69.6007 362.813 70.2474 362.52 70.9941 362.28C71.7541 362.04 72.5207 361.92 73.2941 361.92C74.5207 361.92 75.4341 362.167 76.0341 362.66C76.6341 363.14 76.9341 364.02 76.9341 365.3V370.36C76.9341 370.613 77.0007 370.76 77.1341 370.8C77.2674 370.84 77.5674 370.807 78.0341 370.7V371.86C77.8607 371.927 77.6407 371.993 77.3741 372.06C77.1074 372.127 76.8341 372.16 76.5541 372.16C76.1274 372.16 75.8207 372.08 75.6341 371.92C75.4474 371.76 75.3207 371.473 75.2541 371.06C74.8941 371.42 74.4407 371.687 73.8941 371.86C73.3474 372.033 72.7941 372.133 72.2341 372.16ZM72.2541 370.58C72.8141 370.567 73.3207 370.487 73.7741 370.34C74.2407 370.18 74.6074 369.96 74.8741 369.68C75.1407 369.387 75.2607 369.04 75.2341 368.64C75.2074 368.267 75.0141 368 74.6541 367.84C74.3074 367.68 73.8607 367.613 73.3141 367.64C72.8207 367.653 72.3674 367.747 71.9541 367.92C71.5407 368.08 71.2074 368.293 70.9541 368.56C70.7141 368.827 70.5941 369.127 70.5941 369.46C70.6074 369.833 70.7607 370.12 71.0541 370.32C71.3474 370.507 71.7474 370.593 72.2541 370.58ZM78.6172 372V370.42H78.9772C79.2572 370.42 79.4505 370.387 79.5572 370.32C79.6639 370.253 79.7439 370.093 79.7972 369.84C79.9305 369.173 80.0239 368.3 80.0772 367.22C80.1439 366.14 80.1772 364.947 80.1772 363.64V362.06H86.7772V372H84.9772V363.66H81.9972C81.9972 365.06 81.9505 366.373 81.8572 367.6C81.7639 368.813 81.6372 369.813 81.4772 370.6C81.3705 371.133 81.1505 371.5 80.8172 371.7C80.4839 371.9 79.9772 372 79.2972 372H78.6172ZM89.1838 372V362.06H90.9838V366.14H94.0838C95.4304 366.14 96.3704 366.38 96.9038 366.86C97.4371 367.34 97.7038 368.073 97.7038 369.06C97.7038 370.047 97.4371 370.787 96.9038 371.28C96.3704 371.76 95.4304 372 94.0838 372H89.1838ZM90.9838 370.42H93.9438C94.7171 370.42 95.2304 370.3 95.4838 370.06C95.7371 369.82 95.8638 369.487 95.8638 369.06C95.8638 368.633 95.7371 368.307 95.4838 368.08C95.2304 367.853 94.7171 367.74 93.9438 367.74H90.9838V370.42ZM99.5673 372V362.06H101.347V366.02H105.507V362.06H107.287V372H105.507V367.6H101.347V372H99.5673ZM113.737 372.22C112.857 372.22 112.07 372.007 111.377 371.58C110.697 371.153 110.157 370.553 109.757 369.78C109.37 369.007 109.177 368.107 109.177 367.08C109.177 366.053 109.37 365.153 109.757 364.38C110.157 363.607 110.697 363.007 111.377 362.58C112.07 362.14 112.857 361.92 113.737 361.92C114.617 361.92 115.397 362.14 116.077 362.58C116.77 363.007 117.31 363.607 117.697 364.38C118.097 365.153 118.297 366.053 118.297 367.08C118.297 368.107 118.097 369.007 117.697 369.78C117.31 370.553 116.77 371.153 116.077 371.58C115.397 372.007 114.617 372.22 113.737 372.22ZM113.737 370.52C114.55 370.52 115.21 370.213 115.717 369.6C116.237 368.987 116.497 368.147 116.497 367.08C116.497 366 116.237 365.153 115.717 364.54C115.21 363.927 114.55 363.62 113.737 363.62C112.924 363.62 112.257 363.927 111.737 364.54C111.23 365.153 110.977 366 110.977 367.08C110.977 368.147 111.23 368.987 111.737 369.6C112.257 370.213 112.924 370.52 113.737 370.52ZM124.199 372.22C123.319 372.22 122.532 372.007 121.839 371.58C121.159 371.153 120.619 370.553 120.219 369.78C119.832 369.007 119.639 368.107 119.639 367.08C119.639 366.053 119.832 365.16 120.219 364.4C120.619 363.627 121.159 363.027 121.839 362.6C122.532 362.16 123.319 361.94 124.199 361.94C124.932 361.94 125.605 362.093 126.219 362.4C126.832 362.707 127.345 363.153 127.759 363.74L126.339 364.82C125.845 364.02 125.132 363.62 124.199 363.62C123.385 363.62 122.719 363.927 122.199 364.54C121.692 365.153 121.439 366 121.439 367.08C121.439 368.16 121.692 369.007 122.199 369.62C122.719 370.233 123.385 370.54 124.199 370.54C125.132 370.54 125.852 370.14 126.359 369.34L127.759 370.42C127.345 370.993 126.832 371.44 126.219 371.76C125.605 372.067 124.932 372.22 124.199 372.22ZM133.044 372V363.66H129.624V362.06H138.284V363.66H134.844V372H133.044ZM140.692 372V362.06H142.492V366.14H145.592C146.938 366.14 147.878 366.38 148.412 366.86C148.945 367.34 149.212 368.073 149.212 369.06C149.212 370.047 148.945 370.787 148.412 371.28C147.878 371.76 146.938 372 145.592 372H140.692ZM142.492 370.42H145.452C146.225 370.42 146.738 370.3 146.992 370.06C147.245 369.82 147.372 369.487 147.372 369.06C147.372 368.633 147.245 368.307 146.992 368.08C146.738 367.853 146.225 367.74 145.452 367.74H142.492V370.42Z" fill="#94ADC2"/>
<defs>
<clipPath id="clip0_3731_1288">
<rect width="34" height="34" fill="white" transform="translate(604.75 43)"/>
</clipPath>
<clipPath id="clip1_3731_1288">
<rect width="18" height="18" rx="9" transform="matrix(1 0 0 -1 36 447)" fill="white"/>
</clipPath>
</defs>
</svg>
