<svg width="400" height="500" viewBox="0 0 400 500" fill="none" xmlns="http://www.w3.org/2000/svg">
<path d="M0 12C0 5.37258 5.37258 0 12 0H388C394.627 0 400 5.37258 400 12V488C400 494.627 394.627 500 388 500H12C5.37257 500 0 494.627 0 488V12Z" fill="url(#paint0_linear_4314_95)"/>
<mask id="mask0_4314_95" style="mask-type:alpha" maskUnits="userSpaceOnUse" x="0" y="0" width="400" height="500">
<path d="M0 12C0 5.37258 5.37258 0 12 0H388C394.627 0 400 5.37258 400 12V488C400 494.627 394.627 500 388 500H12C5.37257 500 0 494.627 0 488V12Z" fill="url(#paint1_linear_4314_95)"/>
</mask>
<g mask="url(#mask0_4314_95)">
<ellipse cx="143.973" cy="219.297" rx="143.973" ry="219.297" transform="matrix(0.503535 -0.863975 0.208267 0.978072 117.969 -136.719)" fill="url(#paint2_linear_4314_95)" fill-opacity="0.44" style="mix-blend-mode:multiply"/>
<ellipse cx="220.652" cy="89.7312" rx="220.652" ry="89.7312" transform="matrix(0.0879306 -0.996127 0.806062 0.591831 290.527 613.043)" fill="url(#paint3_linear_4314_95)" fill-opacity="0.42" style="mix-blend-mode:multiply"/>
<ellipse cx="217.488" cy="96.487" rx="217.488" ry="96.487" transform="matrix(0.10791 -0.994161 0.738197 0.674585 -51.9531 793.144)" fill="url(#paint4_linear_4314_95)" fill-opacity="0.42" style="mix-blend-mode:multiply"/>
</g>
<defs>
<linearGradient id="paint0_linear_4314_95" x1="5.96046e-06" y1="250" x2="400" y2="250" gradientUnits="userSpaceOnUse">
<stop stop-color="#0B759D"/>
<stop offset="0.5" stop-color="#1FBABF"/>
<stop offset="1" stop-color="#9CEE8C"/>
</linearGradient>
<linearGradient id="paint1_linear_4314_95" x1="84.2381" y1="-2.48091e-05" x2="500.8" y2="106.784" gradientUnits="userSpaceOnUse">
<stop stop-color="#684FFF"/>
<stop offset="1" stop-color="#B871FE"/>
</linearGradient>
<linearGradient id="paint2_linear_4314_95" x1="143.973" y1="0" x2="143.973" y2="438.594" gradientUnits="userSpaceOnUse">
<stop stop-color="#684FFF"/>
<stop offset="1" stop-color="#FFF8F0" stop-opacity="0"/>
</linearGradient>
<linearGradient id="paint3_linear_4314_95" x1="220.652" y1="0" x2="220.652" y2="179.462" gradientUnits="userSpaceOnUse">
<stop stop-color="#684FFF"/>
<stop offset="1" stop-color="#FFF8F0" stop-opacity="0"/>
</linearGradient>
<linearGradient id="paint4_linear_4314_95" x1="217.488" y1="0" x2="217.488" y2="192.974" gradientUnits="userSpaceOnUse">
<stop stop-color="#684FFF"/>
<stop offset="1" stop-color="#FFF8F0" stop-opacity="0"/>
</linearGradient>
</defs>
</svg>
