<svg width="702" height="1342" viewBox="0 0 702 1342" fill="none" xmlns="http://www.w3.org/2000/svg">
<path d="M566.34 68.782C630.152 37.1282 705 83.5507 705 154.783L705 972.04C705 1144.55 525.951 1258.77 369.516 1186.05L-4.43353e-05 1014.27L-2.28504e-05 522.756C-1.82171e-05 416.76 60.0632 319.919 155.018 272.816L566.34 68.782Z" fill="url(#paint0_linear_3872_755)"/>
<mask id="mask0_3872_755" style="mask-type:alpha" maskUnits="userSpaceOnUse" x="0" y="0" width="705" height="1015">
<path d="M705 0L705 1014.27L-4.43353e-05 1014.27L-1.6642e-05 380.724C-1.58117e-05 361.728 10.764 344.373 27.7811 335.932L705 0Z" fill="#F9F8FF"/>
</mask>
<g mask="url(#mask0_3872_755)">
<ellipse cx="272.354" cy="385.951" rx="272.354" ry="385.951" transform="matrix(0.502708 0.864456 -0.962116 0.27264 943.66 497.499)" fill="url(#paint1_linear_3872_755)" fill-opacity="0.44" style="mix-blend-mode:multiply"/>
<ellipse cx="267.367" cy="183.604" rx="267.367" ry="183.604" transform="matrix(0.995502 -0.0947374 0.0023463 0.999997 -24.5039 131.331)" fill="url(#paint2_linear_3872_755)" fill-opacity="0.42" style="mix-blend-mode:multiply"/>
</g>
<defs>
<linearGradient id="paint0_linear_3872_755" x1="352.5" y1="-1.54083e-05" x2="352.5" y2="1342" gradientUnits="userSpaceOnUse">
<stop stop-color="#0B759D"/>
<stop offset="0.5" stop-color="#1FBABF"/>
<stop offset="1" stop-color="#9CEE8C"/>
</linearGradient>
<linearGradient id="paint1_linear_3872_755" x1="272.354" y1="0" x2="272.354" y2="771.902" gradientUnits="userSpaceOnUse">
<stop stop-color="#684FFF"/>
<stop offset="1" stop-color="#FFF8F0" stop-opacity="0"/>
</linearGradient>
<linearGradient id="paint2_linear_3872_755" x1="267.367" y1="0" x2="267.367" y2="367.209" gradientUnits="userSpaceOnUse">
<stop stop-color="#684FFF"/>
<stop offset="1" stop-color="#FFF8F0" stop-opacity="0"/>
</linearGradient>
</defs>
</svg>
